<svg width="35" height="21" fill="none" xmlns="http://www.w3.org/2000/svg"><path d="M32.416 8.4V3.675c0-.37-.103-.733-.3-1.053a2.163 2.163 0 00-.817-.77 2.317 2.317 0 00-1.115-.276 2.315 2.315 0 00-1.111.29 2.069 2.069 0 00-.774-1.37 2.302 2.302 0 00-1.556-.493c-.567.03-1.1.264-1.49.654a2.04 2.04 0 00-.606 1.443v6.3H10.219V2.1A2.04 2.04 0 009.611.66 2.275 2.275 0 008.124.005a2.302 2.302 0 00-1.556.492 2.07 2.07 0 00-.774 1.368 2.315 2.315 0 00-1.112-.29 2.317 2.317 0 00-1.115.276c-.34.184-.622.45-.818.77-.196.32-.3.683-.299 1.053V8.4c-.589 0-1.153.221-1.57.615-.416.394-.65.928-.65 1.485s.234 1.091.65 1.485c.417.394.981.615 1.57.615v4.725c0 .37.103.733.3 1.053.195.32.477.586.817.77.34.183.724.279 1.115.277a2.315 2.315 0 001.112-.29 2.07 2.07 0 00.774 1.367c.433.346.99.522 1.556.492a2.275 2.275 0 001.487-.653c.39-.39.607-.905.608-1.441v-6.3h14.428v6.3c0 .536.217 1.053.607 1.443.39.39.922.624 1.488.654a2.302 2.302 0 001.557-.493c.434-.346.71-.836.774-1.37a2.317 2.317 0 002.227.013c.339-.183.62-.449.817-.769.196-.32.3-.683.299-1.053V12.6c.589 0 1.153-.221 1.57-.615.416-.394.65-.928.65-1.485s-.234-1.091-.65-1.485a2.286 2.286 0 00-1.57-.615zM2.45 11.55a1.14 1.14 0 01-.785-.308 1.022 1.022 0 01-.325-.742c0-.278.117-.546.325-.742.209-.197.49-.308.785-.308v2.1zm2.22 6.825c-.294 0-.576-.111-.785-.308a1.023 1.023 0 01-.325-.742V3.675c0-.278.117-.545.325-.742.208-.197.49-.308.785-.308.294 0 .576.11.785.308.208.197.325.464.325.742v13.65c0 .278-.118.545-.326.742-.208.197-.49.307-.784.308zm4.44.525c0 .278-.118.545-.326.742-.208.197-.49.308-.785.308-.294 0-.576-.11-.784-.308a1.022 1.022 0 01-.325-.742V2.1c0-.278.116-.545.325-.742.208-.197.49-.308.784-.308.295 0 .577.11.785.308.208.197.325.464.325.742v16.8zm1.11-7.35v-2.1h14.427v2.1H10.219zm17.757 7.35c0 .278-.117.545-.326.742-.208.197-.49.308-.784.308-.295 0-.577-.11-.785-.308a1.022 1.022 0 01-.325-.742V2.1c0-.278.117-.545.325-.742.208-.197.49-.308.785-.308.294 0 .576.11.784.308.209.197.326.464.326.742v16.8zm3.33-1.575c0 .278-.118.545-.326.742-.208.197-.49.308-.785.308a1.14 1.14 0 01-.785-.308 1.022 1.022 0 01-.325-.742V3.675c0-.278.117-.545.326-.742.208-.197.49-.308.784-.308.295 0 .577.11.785.308.208.197.325.464.325.742v13.65zm1.109-5.775v-2.1c.294 0 .577.11.785.308.208.196.325.464.325.742 0 .278-.117.546-.325.742-.208.197-.49.308-.785.308z" fill="#74BB20"/></svg>