<svg width="42" height="24" fill="none" xmlns="http://www.w3.org/2000/svg"><path d="M8.15 17.823c-.966 0-1.753.819-1.753 1.825s.787 1.825 1.753 1.825c.967 0 1.754-.819 1.754-1.825s-.787-1.825-1.754-1.825zm0 2.386a.551.551 0 01-.539-.561.55.55 0 01.54-.561.55.55 0 01.539.561.55.55 0 01-.54.561zm26.592-2.386c-.966 0-1.753.819-1.753 1.825s.786 1.825 1.753 1.825c.967 0 1.753-.819 1.753-1.825s-.786-1.825-1.753-1.825zm0 2.386a.551.551 0 01-.54-.561c0-.31.243-.561.54-.561.297 0 .54.251.54.561a.55.55 0 01-.54.561z" fill="#74BB20"/><path d="M40.432 14.265V8.54c0-.717-.184-1.422-.533-2.04l-.704-1.25a.594.594 0 00-.83-.224.646.646 0 00-.216.864l.703 1.249c.24.424.366.909.366 1.401v.097H38c-.702 0-1.273.595-1.273 1.326v3.605c0 .731.571 1.326 1.273 1.326h1.224a.616.616 0 00.602.553h.028c.506 0 .918.428.918.955v1.024h-2.437c-.73-1.274-2.067-2.129-3.592-2.129s-2.862.855-3.592 2.129h-6.098l.758-1.76c.084-.194.126-.4.126-.612V9.9h4.056a.62.62 0 00.607-.632.62.62 0 00-.607-.632H27.15V3.791h6.658l-.005 4.845H32.58a.62.62 0 00-.607.632.62.62 0 00.606.632h1.225c.673 0 1.22-.57 1.22-1.27V3.57c0-.574-.449-1.042-1.005-1.043H19.896a.993.993 0 00-.667.26l-6.63 6.004a.649.649 0 00-.17.698.61.61 0 00.569.41h11.724v5.154a.239.239 0 01-.02.095l-.98 2.277h-6.918a.62.62 0 00-.607.631.62.62 0 00.607.632h13.861a4.518 4.518 0 00-.091 1.275H12.319a4.518 4.518 0 00-.092-1.274h1.991a.62.62 0 00.607-.633.62.62 0 00-.607-.631h-2.476a4.273 4.273 0 00-1.838-1.726v-6.14l8.709-7.889c.29-.262.66-.406 1.044-.406h14.36c.94 0 1.82.524 2.295 1.367l.526.934c.17.3.541.401.83.225a.646.646 0 00.217-.865l-.526-.933C36.666.763 35.386 0 34.017 0h-14.36a2.74 2.74 0 00-1.841.717L9.07 8.64H4.962C2.612 8.639.7 10.629.7 13.077v6.788c0 .75.587 1.361 1.308 1.361h2.249C4.864 22.848 6.38 24 8.15 24c1.771 0 3.287-1.152 3.895-2.774h18.802C31.456 22.848 32.972 24 34.742 24s3.287-1.152 3.895-2.774h2.036c.724 0 1.312-.613 1.312-1.366v-3.459c0-1.015-.658-1.873-1.553-2.136zM37.999 9.9h1.219v1.234H37.94V9.96A.06.06 0 0138 9.9zm-.059 3.668v-1.17h1.278v1.232h-1.219a.06.06 0 01-.059-.062zM24.722 3.791h1.214v4.845h-1.214V3.79zm-4.752 0h3.538v4.845H14.62l5.35-4.845zM8.69 9.902v5.432a4.036 4.036 0 00-.54-.038c-1.526 0-2.864.857-3.593 2.132a.585.585 0 00-.061-.003H1.913V14.23h1.65c1.01 0 1.831-.855 1.831-1.906s-.821-1.906-1.83-1.906h-.267a2.945 2.945 0 011.665-.517H8.69zm-5.127 1.78a.63.63 0 01.617.643.63.63 0 01-.617.642H1.915c.015-.46.124-.895.308-1.285h1.34zm-1.556 8.28a.096.096 0 01-.094-.097v-1.177h2.16a4.514 4.514 0 00-.091 1.275H2.007zm6.143 2.774c-1.635 0-2.966-1.385-2.966-3.088s1.33-3.088 2.966-3.088c1.636 0 2.967 1.385 2.967 3.088s-1.33 3.088-2.967 3.088zm26.592 0c-1.636 0-2.967-1.385-2.967-3.088s1.331-3.088 2.967-3.088c1.636 0 2.967 1.385 2.967 3.088s-1.331 3.088-2.967 3.088zm5.931-2.773H38.91a4.518 4.518 0 00-.092-1.274h1.953v1.171a.1.1 0 01-.098.103z" fill="#74BB20"/><path d="M23.157 12.152a.62.62 0 00.607-.632.62.62 0 00-.607-.632h-1.166a.62.62 0 00-.607.632.62.62 0 00.607.632h1.166z" fill="#74BB20"/></svg>