<svg width="36" height="36" fill="none" xmlns="http://www.w3.org/2000/svg"><path d="M24.72 22.576a.587.587 0 00-.754-.36.603.603 0 00-.346.79c.537 1.427.576 2.519.106 2.999-.57.579-1.992.398-3.803-.484a25.256 25.256 0 01-6.526-4.954C8.777 15.87 6.872 11.258 8.05 10.06a1.59 1.59 0 011.334-.316.593.593 0 00.631-.555.597.597 0 00-.517-.639 2.683 2.683 0 00-2.281.66c-2.16 2.197 1.142 7.928 5.345 12.204a26.407 26.407 0 006.85 5.187c.462.225.937.418 1.423.579l-4.19 1.616c-5.593-2.164-9.62-7.208-10.553-13.222a.591.591 0 00-.673-.5.599.599 0 00-.492.686c.093.6.217 1.2.368 1.787 1.358 5.233 4.934 9.58 9.758 11.862l-6.895 2.654a.585.585 0 00-.118-.143A8.4 8.4 0 015 26.111l-.273-3.37a.586.586 0 00-.639-.55.597.597 0 00-.54.646v.004l.278 3.369a9.613 9.613 0 003.12 6.318l-4.919 1.894.884-3.692a.6.6 0 00-.433-.725.59.59 0 00-.713.44l-1.15 4.8a.6.6 0 00.432.724.58.58 0 00.35-.021L23.21 27.55a.554.554 0 00.098-.063c.472-.073.91-.295 1.252-.635.584-.594 1.087-1.82.16-4.277z" fill="#74BB20"/><path d="M30.284 21.03a19.105 19.105 0 00-9.989-.987l-2.107.36a.6.6 0 00-.467.702.59.59 0 00.662.48l2.106-.356a17.932 17.932 0 019.381.927.595.595 0 00.797-.563.6.6 0 00-.383-.563zm2.096-9.293a.585.585 0 00-.786-.283l-12.38 5.997a.604.604 0 00-.28.8c.14.299.492.426.786.284l12.381-5.998a.604.604 0 00.28-.8zM14.916 4.07a.59.59 0 00-.695-.468.6.6 0 00-.456.729 17.047 17.047 0 01-.88 10.141l-.858 2.093a.604.604 0 00.317.782.59.59 0 00.77-.323l.858-2.09a18.259 18.259 0 00.944-10.863zm18.109 17.522c-.977 0-1.769.805-1.769 1.799 0 .994.792 1.8 1.77 1.8.976 0 1.768-.806 1.768-1.8s-.792-1.8-1.769-1.8zm0 2.399a.595.595 0 01-.59-.6c0-.331.264-.6.59-.6.326 0 .59.269.59.6 0 .331-.264.6-.59.6zM18.875 4.798c-.977 0-1.768.806-1.768 1.8 0 .993.791 1.799 1.768 1.799s1.769-.806 1.769-1.8c0-.993-.792-1.799-1.769-1.799zm0 2.4a.595.595 0 01-.59-.6c0-.332.265-.6.59-.6.326 0 .59.268.59.6 0 .33-.264.6-.59.6zM13.57 2.4a1.19 1.19 0 001.178-1.2c0-.663-.528-1.2-1.179-1.2a1.19 1.19 0 00-1.179 1.2c0 .662.528 1.2 1.18 1.2zm16.507.599a.595.595 0 00-.59.6v.6c0 .33.265.6.59.6.326 0 .59-.27.59-.6v-.6c0-.332-.264-.6-.59-.6zm0-2.999a.595.595 0 00-.59.6v.6c0 .33.265.6.59.6.326 0 .59-.27.59-.6V.6c0-.331-.264-.6-.59-.6zm1.769 1.8h-.59a.595.595 0 00-.59.6c0 .33.265.599.59.599h.59c.326 0 .59-.269.59-.6 0-.331-.264-.6-.59-.6zm-2.948 0h-.59a.595.595 0 00-.59.6c0 .33.265.599.59.599h.59c.326 0 .59-.269.59-.6 0-.331-.264-.6-.59-.6zM25.95 6.585h-2.96a.595.595 0 00-.59.6v3.011c0 .331.264.6.59.6h2.96c.326 0 .59-.269.59-.6V7.185c0-.332-.264-.6-.59-.6zm-.59 3.011h-1.78V7.784h1.78v1.812zm-3.705 1.997a.582.582 0 00-.816-.043l-5.895 5.398a.607.607 0 00-.044.846c.218.247.59.266.832.045l5.896-5.398a.607.607 0 00.027-.848zm10.78 2.202a.595.595 0 00-.59.6v.6c0 .33.265.599.59.599.326 0 .59-.269.59-.6v-.6c0-.33-.264-.6-.59-.6zm2.502-.104l-.417-.424a.582.582 0 00-.833.015.607.607 0 000 .834l.416.424c.235.23.608.223.834-.015a.607.607 0 000-.834zm.446-2.295h-.59a.595.595 0 00-.589.6c0 .33.264.6.59.6h.59c.325 0 .589-.27.589-.6 0-.332-.264-.6-.59-.6zm-.46-1.945a.582.582 0 00-.82 0l-.416.424a.607.607 0 000 .848.584.584 0 00.833 0l.417-.424a.607.607 0 00-.014-.848zm-2.488-1.054a.595.595 0 00-.59.6v.6c0 .33.265.599.59.599.326 0 .59-.269.59-.6v-.6c0-.33-.264-.6-.59-.6zm-1.251 1.478l-.416-.424a.583.583 0 00-.834.015c-.22.232-.22.6 0 .833l.417.424c.234.23.607.224.833-.014a.607.607 0 000-.834zM7.645 2.594a.592.592 0 00-.476-.408l-1.73-.256L4.667.335a.608.608 0 00-1.058 0L2.834 1.93l-1.73.256a.598.598 0 00-.5.68c.019.13.079.25.172.343L2.027 4.45l-.295 1.753a.599.599 0 00.479.695.578.578 0 00.378-.06l1.547-.83 1.548.828a.585.585 0 00.796-.252.609.609 0 00.06-.38L6.243 4.45l1.254-1.24a.607.607 0 00.148-.615zM5.197 3.812a.606.606 0 00-.17.53l.147.866-.764-.41a.58.58 0 00-.548 0l-.766.41.146-.867a.606.606 0 00-.167-.53l-.62-.613.856-.126a.59.59 0 00.444-.329l.381-.787.382.787a.59.59 0 00.444.329l.854.126-.619.614zm28.784 26.251h-.002l-.243-.37a8.886 8.886 0 00-5.92-3.895.591.591 0 00-.667.51.599.599 0 00.473.673 7.68 7.68 0 014.499 2.551c-.982.18-1.841.78-2.359 1.648-.635 1.157-.227 2.618.91 3.264a2.337 2.337 0 003.208-.925 3.526 3.526 0 00.383-1.54c.628.927.678 2.138.13 3.115a.606.606 0 00.206.822.584.584 0 00.823-.238c1.08-1.961.443-4.44-1.44-5.615zm-1.129 2.87a1.169 1.169 0 01-1.602.471 1.21 1.21 0 01-.462-1.63l.005-.01a2.209 2.209 0 011.596-1.056.592.592 0 01.295.07c.498.282.524 1.507.168 2.156z" fill="#74BB20"/></svg>