<svg width="41" height="38" fill="none" xmlns="http://www.w3.org/2000/svg"><path d="M40.163 17.354c-.4-1.327-1.622-2.214-2.972-2.158l-.288.012a3.303 3.303 0 00-2.236 1.006l-4.453 4.535a3.2 3.2 0 00-.364-.47 3.096 3.096 0 00-2.25-.985h-6.28c-1.185 0-2.341-.159-3.436-.47-2.85-.812-5.571-.226-7.867 1.695a11.591 11.591 0 00-2.092 2.32 2.77 2.77 0 00-3.643.373L.222 27.55a.83.83 0 00.014 1.142L3.5 32.006c.31.315.81.311 1.117-.008a.83.83 0 00-.008-1.149l-2.71-2.75 3.519-3.76a1.222 1.222 0 011.766-.03l6.278 6.27c.24.239.374.56.379.902.005.344-.121.668-.354.914l-3.458 3.65-.89-.871a.774.774 0 00-1.116.028.829.829 0 00.028 1.148l1.455 1.426a.776.776 0 001.11-.021l4.002-4.226a2.934 2.934 0 00.802-2.07 2.985 2.985 0 00-.195-1.022l1.41-.169c.654-.078 1.32-.118 1.978-.118h9.558c.146 0 .294-.006.44-.02l.916-.078a5.213 5.213 0 002.588-.958 5.361 5.361 0 001.012-.945l6.44-7.797a3.23 3.23 0 00.596-2.998zM38.364 19.3l-6.44 7.797a3.769 3.769 0 01-.711.663 3.663 3.663 0 01-1.817.673l-.916.079a3.58 3.58 0 01-.31.013h-9.557c-.72 0-1.446.044-2.16.129l-2.283.273-5.05-5.01a9.962 9.962 0 011.892-2.138c1.91-1.597 4.08-2.065 6.45-1.39 1.232.351 2.53.529 3.857.529H27.6c.418 0 .823.178 1.113.487.212.226.346.504.401.794a.82.82 0 00.027.218c.02.381-.09.77-.337 1.085l-.024.032a1.521 1.521 0 01-1.204.594h-5.469a.8.8 0 00-.79.812c0 .449.354.813.79.813h5.469c.952 0 1.84-.439 2.436-1.204l.024-.03a3.263 3.263 0 00.685-2l5.06-5.153a1.752 1.752 0 011.186-.535l.288-.012a1.408 1.408 0 011.4 1.017c.154.51.045 1.057-.291 1.464z" fill="#74BB20"/><path d="M6.277 25.66c-1.179 0-2.137.987-2.137 2.2s.958 2.2 2.137 2.2 2.138-.987 2.138-2.2-.959-2.2-2.138-2.2zm0 2.776a.568.568 0 01-.559-.576c0-.317.251-.575.56-.575.307 0 .558.258.558.575 0 .318-.25.576-.559.576zm12.476-4.188l-.04.01a.813.813 0 00-.589.976c.085.374.41.627.768.627.06 0 .12-.007.181-.022l.04-.01a.813.813 0 00.589-.976.79.79 0 00-.95-.605zM6.176 32.845l-.041.01a.814.814 0 00-.588.977.794.794 0 00.95.605l.04-.01a.813.813 0 00.588-.977.79.79 0 00-.95-.605zm16.928-15.65c4.607 0 8.355-3.857 8.355-8.597C31.46 3.857 27.711 0 23.104 0c-1.89 0-3.672.633-5.154 1.831a8.641 8.641 0 00-2.097 2.494 8.792 8.792 0 00-1.103 4.273c0 4.74 3.747 8.597 8.354 8.597zM17.222 5.133a6.987 6.987 0 011.702-2.024 6.588 6.588 0 014.18-1.484c3.736 0 6.777 3.128 6.777 6.973 0 3.845-3.04 6.972-6.777 6.972-3.736 0-6.776-3.127-6.776-6.972 0-1.218.31-2.415.894-3.465z" fill="#74BB20"/><path d="M23.805 11.378c-.319.195-.732.264-1.013.264-.532 0-.999-.646-.999-1.381a.801.801 0 00-.79-.813.801.801 0 00-.788.813c0 1.407.832 2.59 1.954 2.916a.799.799 0 00.787.762.8.8 0 00.788-.797c1.14-.304 2.124-1.178 2.124-2.704 0-1.83-1.816-2.83-2.749-2.83-.012 0-1.17-.105-1.17-.868 0-1.171 1.158-1.204 1.17-1.204.22 0 .486.134.697.35.1.105.112.116.112.553a.8.8 0 00.79.811.803.803 0 00.789-.814c0-.519 0-1.107-.575-1.699a2.763 2.763 0 00-1.19-.733.8.8 0 00-.786-.765.801.801 0 00-.79.812v.053c-.862.33-1.796 1.118-1.796 2.636 0 1.861 1.88 2.49 2.743 2.493.238.02 1.176.448 1.176 1.204 0 .446-.149.736-.485.941z" fill="#74BB20"/></svg>