<svg width="40" height="31" fill="none" xmlns="http://www.w3.org/2000/svg"><path d="M38.912 2.696h-1.966V.674a.684.684 0 00-.192-.477.646.646 0 00-.463-.197H22.529a3.2 3.2 0 00-1.468.364c-.456.238-.85.582-1.153 1.004A3.3 3.3 0 0018.755.364 3.2 3.2 0 0017.286 0H3.524a.646.646 0 00-.463.197.684.684 0 00-.192.477v2.022H.903a.646.646 0 00-.464.197.684.684 0 00-.192.477v26.956c0 .179.07.35.192.477.123.126.29.197.464.197h38.01c.173 0 .34-.071.463-.197a.684.684 0 00.192-.477V3.37c0-.18-.07-.35-.192-.477a.646.646 0 00-.464-.197zM1.558 29.652V4.043h1.31V27.63c0 .18.07.35.193.477.123.126.29.197.463.197h13.762c.406.003.8.133 1.131.374.33.241.581.581.717.974H1.558zm17.694-2.001a3.17 3.17 0 00-1.966-.695H4.18V1.348h13.107c.521.001 1.02.215 1.389.594.368.379.576.892.577 1.428v24.28zm.656.674l-.02-.02h.04l-.02.02zm.655-24.955c.002-.536.21-1.05.577-1.428a1.945 1.945 0 011.389-.594h13.107v25.608H22.529a3.17 3.17 0 00-1.966.695V3.37zm17.694 26.282H20.681a2.02 2.02 0 01.717-.974c.33-.241.726-.372 1.13-.374h13.763c.174 0 .34-.07.463-.197a.684.684 0 00.192-.477V4.043h1.311v25.61z" fill="#74BB20"/><path d="M29.738 2.696c-.696 0-1.362.284-1.854.79a2.735 2.735 0 00-.768 1.905v16.174c0 .121.032.24.092.344l1.966 3.37c.058.1.14.183.24.241a.641.641 0 00.887-.241l1.966-3.37a.69.69 0 00.092-.344V5.391c0-.715-.276-1.4-.768-1.906a2.585 2.585 0 00-1.853-.79zm0 20.931l-1.082-1.86 1.082-.74 1.08.74-1.08 1.86zm1.31-3.322l-.655-.451v-9.071h-1.31v9.07l-.656.452V9.435h2.621v10.87zm0-12.218h-2.621V6.739h2.621v1.348zm-2.621-2.696c0-.357.138-.7.384-.953s.579-.395.927-.395c.347 0 .68.142.926.395s.384.596.384.953h-2.621zM5.49 3.37h12.452v1.347H5.49V3.37zm0 2.695h7.21v1.348H5.49V6.065zm8.52 0h3.932v1.348h-3.933V6.065zM5.49 8.76h2.622v1.349H5.49V8.76zm3.932 0h8.52v1.349h-8.52V8.76z" fill="#74BB20"/></svg>