<svg width="29" height="34" fill="none" xmlns="http://www.w3.org/2000/svg"><path d="M12.611 25.407h-3.06a.646.646 0 00-.643.648c0 .358.288.649.644.649h3.06c.354 0 .643-.29.643-.649a.646.646 0 00-.644-.648z" fill="#74BB20"/><path d="M26.319 5.958L20.591.19a.641.641 0 00-.455-.19H2.442a1.94 1.94 0 00-1.93 1.944v29.297a1.94 1.94 0 001.93 1.944h12.291c.356 0 .644-.29.644-.648a.646.646 0 00-.644-.648H2.443a.646.646 0 01-.644-.648V1.944c0-.357.288-.648.643-.648h17.051V5.12a1.94 1.94 0 001.93 1.945h3.797v11.537c0 .358.288.648.643.648.356 0 .644-.29.644-.648V6.417a.65.65 0 00-.189-.459zm-4.895-.19a.647.647 0 01-.644-.648V2.213l3.53 3.556h-2.886z" fill="#74BB20"/><path d="M20.726 18.148H9.552a.646.646 0 00-.644.648c0 .358.288.648.644.648h11.174c.355 0 .643-.29.643-.648a.646.646 0 00-.643-.648zm-13.356 0H5.273a.646.646 0 00-.643.648c0 .358.288.648.643.648H7.37c.355 0 .643-.29.643-.648a.646.646 0 00-.643-.648zm5.7 3.63H9.552a.646.646 0 00-.644.648c0 .358.288.648.644.648h3.518c.356 0 .644-.29.644-.648a.646.646 0 00-.644-.648zm-5.7 0H5.273a.646.646 0 00-.643.648c0 .358.288.648.643.648H7.37c.355 0 .643-.29.643-.648a.646.646 0 00-.643-.648zm2.636 3.819a.645.645 0 00-.455-.19.647.647 0 00-.455 1.107c.12.12.286.19.455.19a.645.645 0 00.644-.649.653.653 0 00-.189-.458zm-2.636-.19H5.273a.646.646 0 00-.643.648c0 .358.288.648.643.648H7.37c.355 0 .643-.29.643-.648a.646.646 0 00-.643-.648zm4.435-16.144h-1.54V7.697a.583.583 0 00-.578-.59c-.32 0-.58.264-.58.59v1.566H7.569a.583.583 0 00-.579.589c0 .325.26.589.58.589h1.538v1.566c0 .325.26.589.58.589.32 0 .579-.264.579-.59v-1.565h1.539c.32 0 .58-.264.58-.59a.584.584 0 00-.58-.588z" fill="#74BB20"/><path d="M9.687 4.667c-2.81 0-5.097 2.326-5.097 5.185 0 2.859 2.286 5.185 5.097 5.185 2.81 0 5.097-2.326 5.097-5.185 0-2.86-2.287-5.185-5.097-5.185zm0 9.191c-2.172 0-3.939-1.797-3.939-4.006 0-2.21 1.767-4.007 3.939-4.007 2.171 0 3.938 1.797 3.938 4.007s-1.767 4.006-3.938 4.006z" fill="#74BB20"/><path fill-rule="evenodd" clip-rule="evenodd" d="M18.097 22.556v9.333h8.665v-9.333h-8.665zm-.255-1.297a1.03 1.03 0 00-1.02 1.037v9.852c0 .573.457 1.037 1.02 1.037h9.175c.563 0 1.019-.464 1.019-1.037v-9.852c0-.572-.456-1.037-1.02-1.037h-9.174z" fill="#74BB20"/><path fill-rule="evenodd" clip-rule="evenodd" d="M26.103 25.04a.525.525 0 010 .734l-4.438 4.515-2.654-2.7a.525.525 0 010-.733.504.504 0 01.72 0l1.934 1.966 3.717-3.781a.504.504 0 01.72 0z" fill="#74BB20"/></svg>