<svg width="36" height="36" fill="none" xmlns="http://www.w3.org/2000/svg"><path d="M33.36 18.466a1.06 1.06 0 010-.932l1.337-2.747a3.131 3.131 0 00-1.343-4.15l-2.69-1.433a1.052 1.052 0 01-.545-.754l-.526-3.012a3.114 3.114 0 00-3.517-2.565l-3.015.429a1.048 1.048 0 01-.883-.289L19.99.888a3.104 3.104 0 00-4.347 0l-2.188 2.126a1.049 1.049 0 01-.883.288l-3.016-.428A3.114 3.114 0 006.04 5.439l-.526 3.01c-.057.326-.255.6-.546.755l-2.69 1.433a3.131 3.131 0 00-1.343 4.15l1.338 2.747a1.06 1.06 0 010 .932L.935 21.213a3.131 3.131 0 001.343 4.15l2.69 1.433c.29.155.49.43.546.754l.526 3.012a3.114 3.114 0 003.517 2.565l3.015-.429c.325-.046.647.06.883.289l2.188 2.125c.61.592 1.392.888 2.174.888a3.11 3.11 0 002.172-.888l2.19-2.125a1.05 1.05 0 01.882-.289l3.015.429a3.114 3.114 0 003.517-2.565l.526-3.012c.056-.324.256-.6.546-.754l2.69-1.433a3.131 3.131 0 001.343-4.15l-1.338-2.747zm-.975 5.063l-2.69 1.433a3.117 3.117 0 00-1.613 2.23l-.526 3.01c-.1.568-.622.95-1.19.869l-3.015-.429a3.097 3.097 0 00-2.61.852l-2.19 2.126c-.411.4-1.057.4-1.47 0l-2.188-2.126a3.096 3.096 0 00-2.611-.852l-3.015.429c-.568.08-1.09-.3-1.19-.868l-.526-3.011a3.117 3.117 0 00-1.614-2.23l-2.69-1.433a1.06 1.06 0 01-.454-1.404l1.337-2.747a3.13 3.13 0 000-2.756l-1.337-2.747a1.06 1.06 0 01.455-1.404l2.69-1.433a3.117 3.117 0 001.613-2.23l.526-3.01c.1-.568.622-.95 1.19-.869l3.015.429a3.098 3.098 0 002.61-.852l2.19-2.126a1.05 1.05 0 011.47 0l2.188 2.126c.698.678 1.65.988 2.61.852l3.016-.429c.568-.08 1.09.3 1.19.868l.526 3.012c.168.96.756 1.772 1.613 2.23l2.69 1.432c.507.27.707.887.455 1.404l-1.338 2.747a3.129 3.129 0 000 2.756l1.338 2.747a1.06 1.06 0 01-.455 1.404z" fill="#74BB20"/><path d="M25.372 10.414a1.031 1.031 0 00-1.463 0L10.261 24.118a1.041 1.041 0 000 1.468 1.029 1.029 0 001.462 0l13.649-13.703a1.041 1.041 0 000-1.469zM13.68 8.657c-2.09 0-3.791 1.707-3.791 3.806 0 2.1 1.7 3.807 3.791 3.807 2.09 0 3.792-1.708 3.792-3.807S15.77 8.657 13.68 8.657zm0 5.537a1.73 1.73 0 01-1.723-1.73c0-.955.773-1.731 1.723-1.731.95 0 1.724.776 1.724 1.73s-.773 1.73-1.724 1.73zm8.272 5.536c-2.09 0-3.791 1.708-3.791 3.807s1.7 3.806 3.791 3.806 3.792-1.707 3.792-3.806-1.701-3.807-3.792-3.807zm0 5.537c-.95 0-1.723-.776-1.723-1.73s.773-1.73 1.723-1.73c.95 0 1.724.776 1.724 1.73s-.773 1.73-1.724 1.73z" fill="#74BB20"/></svg>