<svg width="36" height="35" fill="none" xmlns="http://www.w3.org/2000/svg"><path d="M28.719 10.168a.678.678 0 00.672-.683V2.05C29.39.92 28.486 0 27.375 0H2.914C1.802 0 .898.92.898 2.05v30.9c0 1.13.904 2.05 2.016 2.05h24.46c1.112 0 2.017-.92 2.017-2.05v-5.037a.678.678 0 00-.672-.683.678.678 0 00-.672.683v5.036a.679.679 0 01-.672.684H2.914a.679.679 0 01-.672-.684V2.051c0-.377.301-.684.672-.684h24.46a.68.68 0 01.673.684v7.434c0 .377.3.684.672.684z" fill="#74BB20"/><path d="M15.144 3.691c-3.409 0-6.182 2.822-6.182 6.29a6.323 6.323 0 002.013 4.639 6.101 6.101 0 004.17 1.65 6.102 6.102 0 004.24-1.718 6.323 6.323 0 001.942-4.572c0-3.467-2.774-6.289-6.183-6.289zm0 11.211a4.76 4.76 0 01-2.922-1.002 3.33 3.33 0 012.922-1.732 3.33 3.33 0 012.923 1.732 4.76 4.76 0 01-2.923 1.002zM14.07 9.707v-.444c0-.603.482-1.094 1.075-1.094s1.075.49 1.075 1.094v.444c0 .603-.482 1.094-1.075 1.094-.592 0-1.075-.49-1.075-1.094zm4.969 3.191a4.681 4.681 0 00-1.98-1.688c.316-.416.506-.937.506-1.503v-.444c0-1.357-1.086-2.461-2.42-2.461-1.334 0-2.419 1.104-2.419 2.46v.445c0 .566.19 1.087.506 1.503a4.681 4.681 0 00-1.98 1.688 4.95 4.95 0 01-.945-2.918c0-2.713 2.17-4.921 4.838-4.921s4.839 2.208 4.839 4.921a4.953 4.953 0 01-.945 2.918zm-.266 17.043h-3.629a.678.678 0 00-.672.684c0 .378.301.684.672.684h3.63a.678.678 0 00.671-.684c0-.378-.3-.684-.672-.684zm0-3.828H9.231a.678.678 0 00-.672.684c0 .377.3.683.672.683h9.542a.678.678 0 00.672-.683c0-.378-.3-.684-.672-.684zm0-3.828H9.231a.678.678 0 00-.672.684c0 .377.3.683.672.683h9.542a.678.678 0 00.672-.683c0-.378-.3-.684-.672-.684zM6.836 18.657a.672.672 0 00-.476-.2.671.671 0 00-.475.2.695.695 0 000 .967c.126.127.298.2.475.2s.35-.073.476-.2a.695.695 0 000-.967zm0 3.828a.673.673 0 00-.476-.2.672.672 0 00-.475.2.695.695 0 000 .967c.126.127.298.2.475.2s.35-.073.476-.2a.695.695 0 000-.967zm0 3.829a.672.672 0 00-.476-.2.672.672 0 00-.475.2.695.695 0 000 .966c.125.127.298.2.475.2s.35-.073.476-.2a.695.695 0 000-.966zm11.937-7.857H9.231a.678.678 0 00-.672.684c0 .377.3.683.672.683h9.542a.678.678 0 00.672-.683c0-.378-.3-.684-.672-.684zm15.12-9.548a2.763 2.763 0 00-2.142-.287 2.81 2.81 0 00-1.714 1.337l-8.456 14.9a.692.692 0 00-.086.266l-.596 5.424c-.03.27.101.532.332.668a.663.663 0 00.735-.041l4.32-3.237a.679.679 0 00.183-.209l8.457-14.9c.778-1.37.314-3.13-1.033-3.921zM22.406 29.148l.31-2.832 1.945 1.142-2.255 1.69zm3.235-2.693l-2.56-1.504 6.786-11.957 2.56 1.504-6.786 11.957zm8.12-14.308l-.662 1.167-2.56-1.504.662-1.167a1.465 1.465 0 012.02-.55c.342.2.586.525.688.913.102.388.05.793-.147 1.141z" fill="#74BB20"/></svg>