<svg width="38" height="38" fill="none" xmlns="http://www.w3.org/2000/svg"><path d="M35.7 7.6h-7.47V1.9c0-.504-.198-.987-.548-1.344A1.852 1.852 0 0026.362 0H11.42c-.496 0-.97.2-1.32.556-.351.357-.548.84-.548 1.344v5.7h-7.47c-.496 0-.971.2-1.321.556-.35.357-.548.84-.548 1.344v24.067c0 .504.197.987.548 1.343.35.357.825.557 1.32.557h16.81v1.9a.64.64 0 00.182.448.617.617 0 00.44.185h17.432a.617.617 0 00.44-.185.639.639 0 00.183-.448V9.5a1.92 1.92 0 00-.547-1.344A1.852 1.852 0 0035.7 7.6zM10.797 1.9a.64.64 0 01.182-.448.617.617 0 01.44-.185h14.942c.165 0 .324.066.44.185a.64.64 0 01.183.448v5.7h-1.245V3.167a.64.64 0 00-.183-.448.617.617 0 00-.44-.186H12.665a.617.617 0 00-.44.186.64.64 0 00-.183.448V7.6h-1.245V1.9zm13.697 5.7H13.287V3.8h11.207v3.8zM2.08 8.867H35.7c.165 0 .323.066.44.185a.64.64 0 01.182.448v.633H24.494v.006a.608.608 0 00-.44.18l-4.981 5.067a.639.639 0 00-.177.447h-.005v1.9H11.42V17.1a.639.639 0 00-.183-.448.617.617 0 00-.44-.185V13.3a.639.639 0 00-.182-.448.617.617 0 00-.44-.185H6.439a.617.617 0 00-.44.185.639.639 0 00-.182.448v3.167a.617.617 0 00-.44.185.639.639 0 00-.183.448v.633H1.459V9.5c0-.168.065-.33.182-.448a.617.617 0 01.44-.185zm21.79 3.428V15.2h-2.855l2.855-2.904zM10.175 19H6.439v-1.267h3.736V19zm-.623-2.533h-2.49v-2.534h2.49v2.534zm-2.49 3.8h2.49v2.828l-1.245.845-1.245-.844v-2.83zM2.082 34.2a.617.617 0 01-.441-.186.639.639 0 01-.182-.447V19h3.735v.633c0 .168.066.33.182.448a.618.618 0 00.44.186v3.166a.642.642 0 00.278.527l1.867 1.267a.615.615 0 00.691 0l1.868-1.267a.63.63 0 00.277-.527v-3.166a.618.618 0 00.44-.186.64.64 0 00.183-.448V19h7.47v15.2H2.082zm34.24 2.533H20.137V16.467h4.358a.617.617 0 00.44-.186.639.639 0 00.182-.448V11.4h11.206v25.333z" fill="#74BB20"/><path d="M26.361 13.933h2.49V15.2h-2.49v-1.267zm3.736 0h4.98V15.2h-4.98v-1.267zm-8.717 3.8h7.472V19H21.38v-1.267zm8.717 0h4.98V19h-4.98v-1.267zm-8.717 3.8h13.697V22.8H21.381v-1.267zm0 3.8h13.697V26.6H21.381v-1.267zm0 3.8h13.697V30.4H21.381v-1.267zm0 3.8h2.491V34.2h-2.49v-1.267zm3.736 0h2.49V34.2h-2.49v-1.267zm3.736 0h2.49V34.2h-2.49v-1.267zm3.735 0h2.49V34.2h-2.49v-1.267z" fill="#74BB20"/></svg>