<svg width="36" height="35" fill="none" xmlns="http://www.w3.org/2000/svg"><path d="M28.01 20.852a.509.509 0 00-.504.512c0 .284.226.513.505.513h1.058c.279 0 .504-.23.504-.513a.509.509 0 00-.504-.512h-1.058zm0 6.311h1.059c.279 0 .504-.23.504-.513a.509.509 0 00-.504-.513h-1.058a.509.509 0 00-.505.513.51.51 0 00.505.513zm0 5.285h1.059c.279 0 .504-.23.504-.512a.509.509 0 00-.504-.513h-1.058a.509.509 0 00-.505.513c0 .283.226.512.505.512z" fill="#74BB20"/><path d="M34.528 15.364H21.914v-1.248a.95.95 0 00-.942-.958h-.133v-6.16a1.22 1.22 0 00-1.207-1.227h-6.684a.509.509 0 00-.504.513c0 .283.226.513.504.513h6.684a.2.2 0 01.199.202v6.159H8.637v-6.16a.2.2 0 01.199-.202h1.75c.278 0 .504-.23.504-.512a.509.509 0 00-.504-.513h-1.75a1.22 1.22 0 00-1.208 1.228v6.159h-.133a.95.95 0 00-.942.958v1.248H1.776a.835.835 0 00-.827.841v2.28c0 .464.37.84.827.84h.449v14.911c0 .421.337.764.751.764h1.738a.759.759 0 00.752-.764v-2.509h17.536v2.51c0 .42.337.763.75.763h9.575a.758.758 0 00.751-.764V22.825a.509.509 0 00-.504-.513.509.509 0 00-.504.513v.7h-9.06v-4.2h9.06v1.118c0 .283.225.512.504.512.278 0 .504-.23.504-.512v-1.117h.45a.835.835 0 00.826-.84v-2.281c0-.463-.37-.84-.826-.84zm-26.966-1.18h13.343v1.18H7.562v-1.18zm-3.105 19.79H3.234V19.326h1.223v14.648zm18.545-3.273H5.466V19.326h17.536V30.7zm10.067 3.273H24.01v-4.199h9.06v4.2zm0-9.424v4.2H24.01v-4.2h9.06zm1.276-6.25H1.958v-1.91h32.387v1.91zM28.54 6.796c1.843 0 3.342-1.524 3.342-3.398 0-1.873-1.5-3.398-3.342-3.398-1.843 0-3.342 1.524-3.342 3.398s1.5 3.398 3.342 3.398zm0-5.77c1.287 0 2.333 1.064 2.333 2.372 0 1.308-1.047 2.373-2.333 2.373-1.287 0-2.334-1.065-2.334-2.373 0-1.308 1.047-2.372 2.334-2.372z" fill="#74BB20"/><path d="M28.54 3.776h.472c.278 0 .504-.23.504-.513a.51.51 0 00-.472-.511V2.34a.509.509 0 00-.504-.512.509.509 0 00-.504.512v.924c0 .283.225.512.504.512z" fill="#74BB20"/></svg>