<svg width="20" height="36" fill="none" xmlns="http://www.w3.org/2000/svg"><path d="M16.88 0H3.003C2.236 0 1.5.307.959.851a2.913 2.913 0 00-.847 2.052v30.194c0 .77.305 1.507.847 2.052A2.89 2.89 0 003.003 36H16.88c.767 0 1.502-.307 2.044-.851a2.912 2.912 0 00.848-2.052V2.903a2.914 2.914 0 00-.848-2.052A2.888 2.888 0 0016.88 0zm-3.018 1.161l-.347 1.742H6.368l-.347-1.742h7.841zm4.753 31.936a1.742 1.742 0 01-1.735 1.742H3.003c-.46 0-.901-.184-1.226-.511a1.747 1.747 0 01-.509-1.231V2.903c0-.462.183-.904.509-1.23a1.73 1.73 0 011.226-.512h1.839l.485 2.437a.581.581 0 00.567.467h8.095a.577.577 0 00.567-.467l.486-2.437h1.838c.46 0 .901.184 1.227.511.325.327.508.77.508 1.231v30.194z" fill="#74BB20"/><path d="M6.472 32.516h-3.47a.577.577 0 00-.578.58.582.582 0 00.579.581h3.47a.577.577 0 00.577-.58.582.582 0 00-.578-.58zm2.313 0h-.578a.577.577 0 00-.578.58.582.582 0 00.578.581h.578a.577.577 0 00.578-.58.582.582 0 00-.578-.58z" fill="#74BB20"/></svg>