<svg width="36" height="35" fill="none" xmlns="http://www.w3.org/2000/svg"><path d="M1.503 17.492h.02c.31 0 .563-.249.574-.563.31-9.015 7.75-16.067 16.617-15.752a15.906 15.906 0 019.377 3.49h-3.054a.579.579 0 00-.574.584c0 .322.257.583.574.583h4.598a.57.57 0 00.132-.027.606.606 0 00.087-.02c.016-.006.028-.02.043-.03a.55.55 0 00.14-.1l.006-.003a.56.56 0 00.04-.064.562.562 0 00.075-.122.57.57 0 00.029-.144.507.507 0 00.014-.073V.584a.579.579 0 00-.574-.583.579.579 0 00-.574.583v3.379C21.702-2.161 10.86-1.067 4.836 6.408A17.668 17.668 0 00.95 16.89a.58.58 0 00.554.602zm4.645 10.863a.568.568 0 00-.811-.05.591.591 0 00-.05.826c.396.45.813.88 1.25 1.288a.568.568 0 00.81-.054.59.59 0 00-.035-.807c-.408-.38-.796-.782-1.164-1.203zm6.847 4.619a15.925 15.925 0 01-1.542-.623.57.57 0 00-.77.263.588.588 0 00.29.796 16.8 16.8 0 001.655.67c.3.103.626-.061.727-.366a.586.586 0 00-.36-.74zm-3.013-1.407v-.001c-.477-.287-.94-.599-1.386-.933a.567.567 0 00-.805.096.59.59 0 00.123.841c.477.36.972.693 1.482 1a.569.569 0 00.787-.204.589.589 0 00-.201-.8zM5.11 27.039a16.596 16.596 0 01-.9-1.42.57.57 0 00-.785-.214.59.59 0 00-.211.798 17.7 17.7 0 00.964 1.517c.19.258.55.31.803.116a.59.59 0 00.128-.797zm-1.601-2.684a.592.592 0 00-.05-.236v-.004a16.463 16.463 0 01-.594-1.575.573.573 0 00-.705-.41.584.584 0 00-.385.77c.183.574.395 1.139.635 1.691a.574.574 0 00.525.347.579.579 0 00.574-.583zm-1.515-2.756a.583.583 0 00.442-.691 16.79 16.79 0 01-.26-1.668.576.576 0 00-.63-.519.581.581 0 00-.511.642c.063.6.156 1.196.279 1.786.065.315.37.517.68.45zm32.453-.596a.573.573 0 00-.695.426 16.552 16.552 0 01-.481 1.616.586.586 0 00.345.747.571.571 0 00.734-.351 17.73 17.73 0 00.517-1.731.584.584 0 00-.42-.707zM16.23 33.717a15.839 15.839 0 01-1.636-.286.574.574 0 00-.686.44.584.584 0 00.433.698 16.84 16.84 0 001.754.306.579.579 0 00.641-.58.58.58 0 00-.506-.578zm17.16-9.387a.57.57 0 00-.767.272 16.307 16.307 0 01-.8 1.48.589.589 0 00.2.8.57.57 0 00.776-.186c.312-.513.598-1.043.857-1.586a.588.588 0 00-.267-.78zm-1.696 3.034a.568.568 0 00-.816.107v-.001c-.339.446-.7.875-1.082 1.283a.59.59 0 00.02.825c.23.222.594.213.812-.02.409-.438.795-.897 1.158-1.374a.59.59 0 00-.092-.82zm3.106-9.836a.569.569 0 00-.592.544l-.001.018c-.02.563-.068 1.125-.144 1.682a.582.582 0 00.57.664.577.577 0 00.566-.503c.082-.598.134-1.2.155-1.802a.58.58 0 00-.553-.603zm-6.206 12.385v.002c-.422.367-.862.71-1.32 1.032a.59.59 0 00-.145.813.57.57 0 00.8.148c.488-.345.96-.715 1.411-1.108a.59.59 0 00.063-.822.567.567 0 00-.809-.065zm-5.788 3.225a15.71 15.71 0 01-1.613.403.583.583 0 00-.455.683.576.576 0 00.671.463 16.78 16.78 0 001.728-.432.586.586 0 00.366-.737.572.572 0 00-.697-.38zm-3.228.632a.557.557 0 00-.032.003l.003.002c-.459.04-.929.058-1.397.058h-.262a.598.598 0 00-.585.573.579.579 0 00.563.594h.284c.501 0 1.004-.023 1.492-.065a.58.58 0 00.54-.616.577.577 0 00-.606-.549zm6.285-1.938c-.485.27-.985.515-1.495.734a.587.587 0 00-.316.76.57.57 0 00.747.32c.005 0 .009-.003.013-.005a17.134 17.134 0 001.602-.786.588.588 0 00.227-.792.569.569 0 00-.778-.231z" fill="#74BB20"/><path d="M18.152 5.25c-6.655 0-12.05 5.485-12.05 12.25 0 6.766 5.395 12.25 12.05 12.25 6.654 0 12.049-5.484 12.049-12.25-.008-6.762-5.398-12.242-12.05-12.25zm9.18 12.834h1.692c-.298 5.652-4.739 10.167-10.298 10.47v-1.72a.579.579 0 00-.574-.584.579.579 0 00-.574.584v1.72c-5.56-.303-10-4.818-10.298-10.47h1.692a.579.579 0 00.573-.584.579.579 0 00-.573-.583H7.28c.298-5.652 4.739-10.167 10.298-10.47v1.72a.58.58 0 00.574.584.579.579 0 00.574-.584v-1.72c5.56.303 10 4.818 10.298 10.47h-1.692a.579.579 0 00-.574.583c0 .323.257.584.574.584z" fill="#74BB20"/><path d="M18.726 15.858V10.5a.579.579 0 00-.574-.584.579.579 0 00-.574.584v5.357a1.736 1.736 0 00-1.042 1.06h-2.974a.579.579 0 00-.574.582c0 .323.257.584.574.584h2.974a1.71 1.71 0 002.19 1.068 1.753 1.753 0 001.05-2.226 1.727 1.727 0 00-1.05-1.068zm-.574 2.226a.579.579 0 01-.574-.584c0-.322.257-.583.574-.583.317 0 .574.261.574.583a.579.579 0 01-.574.584z" fill="#74BB20"/></svg>