<svg width="35" height="21" viewBox="0 0 35 21" fill="none" xmlns="http://www.w3.org/2000/svg">
<path d="M32.4159 8.40007V3.67521C32.4162 3.30524 32.313 2.94179 32.1169 2.6217C31.9208 2.3016 31.6388 2.03624 31.2993 1.85251C30.9599 1.66879 30.5751 1.57322 30.1841 1.57551C29.793 1.57779 29.4096 1.67784 29.0725 1.86553C29.0092 1.33224 28.7325 0.842116 28.2992 0.495801C27.8659 0.149485 27.3088 -0.0267449 26.7425 0.00329529C26.1761 0.0333355 25.6434 0.267366 25.2537 0.657335C24.864 1.0473 24.647 1.56362 24.647 2.10026V8.40007H10.2191V2.10026C10.2184 1.56412 10.0009 1.04853 9.61134 0.659178C9.22174 0.269826 8.68947 0.0361996 8.12364 0.00618512C7.55781 -0.0238294 7.00128 0.152041 6.56811 0.497749C6.13494 0.843457 5.85795 1.33282 5.79391 1.86553C5.45689 1.67776 5.07338 1.57764 4.68227 1.57531C4.29116 1.57299 3.90635 1.66854 3.56686 1.85227C3.22737 2.03601 2.94527 2.3014 2.74915 2.62154C2.55304 2.94169 2.44989 3.30519 2.45016 3.67521V8.40007C1.86146 8.40007 1.29687 8.62131 0.8806 9.01512C0.464328 9.40894 0.230469 9.94306 0.230469 10.5C0.230469 11.0569 0.464328 11.5911 0.8806 11.9849C1.29687 12.3787 1.86146 12.5999 2.45016 12.5999V17.3248C2.44989 17.6948 2.55304 18.0583 2.74915 18.3785C2.94527 18.6986 3.22737 18.964 3.56686 19.1477C3.90635 19.3315 4.29116 19.427 4.68227 19.4247C5.07338 19.4224 5.45689 19.3222 5.79391 19.1345C5.85795 19.6672 6.13494 20.1565 6.56811 20.5023C7.00128 20.848 7.55781 21.0238 8.12364 20.9938C8.68947 20.9638 9.22174 20.7302 9.61134 20.3408C10.0009 19.9515 10.2184 19.4359 10.2191 18.8997V12.5999H24.647V18.8997C24.647 19.4364 24.864 19.9527 25.2537 20.3427C25.6434 20.7326 26.1761 20.9667 26.7425 20.9967C27.3088 21.0267 27.8659 20.8505 28.2992 20.5042C28.7325 20.1579 29.0092 19.6678 29.0725 19.1345C29.4096 19.3222 29.793 19.4222 30.1841 19.4245C30.5751 19.4268 30.9599 19.3312 31.2993 19.1475C31.6388 18.9638 31.9208 18.6984 32.1169 18.3783C32.313 18.0582 32.4162 17.6948 32.4159 17.3248V12.5999C33.0046 12.5999 33.5692 12.3787 33.9855 11.9849C34.4018 11.5911 34.6356 11.0569 34.6356 10.5C34.6356 9.94306 34.4018 9.40894 33.9855 9.01512C33.5692 8.62131 33.0046 8.40007 32.4159 8.40007ZM2.45016 11.55C2.15581 11.55 1.87351 11.4393 1.66538 11.2424C1.45724 11.0455 1.34031 10.7785 1.34031 10.5C1.34031 10.2215 1.45724 9.95447 1.66538 9.75756C1.87351 9.56065 2.15581 9.45003 2.45016 9.45003V11.55ZM4.66985 18.3748C4.3756 18.3744 4.09351 18.2637 3.88545 18.0669C3.67739 17.87 3.56035 17.6032 3.56 17.3248V3.67521C3.56 3.39674 3.67693 3.12968 3.88507 2.93277C4.0932 2.73586 4.3755 2.62524 4.66985 2.62524C4.96419 2.62524 5.24649 2.73586 5.45462 2.93277C5.66276 3.12968 5.77969 3.39674 5.77969 3.67521V17.3248C5.77934 17.6032 5.6623 17.87 5.45424 18.0669C5.24618 18.2637 4.96409 18.3744 4.66985 18.3748ZM9.10922 18.8997C9.10922 19.1782 8.99229 19.4453 8.78416 19.6422C8.57602 19.8391 8.29373 19.9497 7.99938 19.9497C7.70503 19.9497 7.42274 19.8391 7.2146 19.6422C7.00646 19.4453 6.88953 19.1782 6.88953 18.8997V2.10026C6.88953 1.82179 7.00646 1.55473 7.2146 1.35782C7.42274 1.16091 7.70503 1.05029 7.99938 1.05029C8.29373 1.05029 8.57602 1.16091 8.78416 1.35782C8.99229 1.55473 9.10922 1.82179 9.10922 2.10026V18.8997ZM10.2191 11.55V9.45003H24.647V11.55H10.2191ZM27.9766 18.8997C27.9766 19.1782 27.8596 19.4453 27.6515 19.6422C27.4434 19.8391 27.1611 19.9497 26.8667 19.9497C26.5724 19.9497 26.2901 19.8391 26.0819 19.6422C25.8738 19.4453 25.7569 19.1782 25.7569 18.8997V2.10026C25.7569 1.82179 25.8738 1.55473 26.0819 1.35782C26.2901 1.16091 26.5724 1.05029 26.8667 1.05029C27.1611 1.05029 27.4434 1.16091 27.6515 1.35782C27.8596 1.55473 27.9766 1.82179 27.9766 2.10026V18.8997ZM31.3061 17.3248C31.3061 17.6033 31.1892 17.8703 30.981 18.0672C30.7729 18.2641 30.4906 18.3748 30.1963 18.3748C29.9019 18.3748 29.6196 18.2641 29.4115 18.0672C29.2033 17.8703 29.0864 17.6033 29.0864 17.3248V3.67521C29.0864 3.39674 29.2033 3.12968 29.4115 2.93277C29.6196 2.73586 29.9019 2.62524 30.1963 2.62524C30.4906 2.62524 30.7729 2.73586 30.981 2.93277C31.1892 3.12968 31.3061 3.39674 31.3061 3.67521V17.3248ZM32.4159 11.55V9.45003C32.7103 9.45003 32.9926 9.56065 33.2007 9.75756C33.4089 9.95447 33.5258 10.2215 33.5258 10.5C33.5258 10.7785 33.4089 11.0455 33.2007 11.2424C32.9926 11.4393 32.7103 11.55 32.4159 11.55Z" fill="#74BB20"/>
</svg>
