<svg width="42" height="24" viewBox="0 0 42 24" fill="none" xmlns="http://www.w3.org/2000/svg">
<path d="M8.15049 17.8231C7.18387 17.8231 6.39737 18.6418 6.39737 19.6481C6.39737 20.6543 7.18379 21.473 8.15049 21.473C9.1172 21.473 9.90362 20.6544 9.90362 19.6481C9.90354 18.6418 9.11712 17.8231 8.15049 17.8231ZM8.15049 20.2095C7.85313 20.2095 7.61111 19.9576 7.61111 19.648C7.61111 19.3384 7.85304 19.0865 8.15049 19.0865C8.44794 19.0865 8.68988 19.3384 8.68988 19.648C8.6898 19.9576 8.44786 20.2095 8.15049 20.2095Z" fill="#74BB20"/>
<path d="M34.7421 17.8231C33.7755 17.8231 32.989 18.6418 32.989 19.6481C32.989 20.6543 33.7754 21.473 34.7421 21.473C35.7088 21.473 36.4952 20.6544 36.4952 19.6481C36.4952 18.6418 35.7087 17.8231 34.7421 17.8231ZM34.7421 20.2095C34.4447 20.2095 34.2027 19.9576 34.2027 19.648C34.2027 19.3384 34.4446 19.0865 34.7421 19.0865C35.0395 19.0865 35.2815 19.3384 35.2815 19.648C35.2815 19.9576 35.0395 20.2095 34.7421 20.2095Z" fill="#74BB20"/>
<path d="M40.4318 14.2652V8.53917C40.4318 7.82227 40.2475 7.11658 39.899 6.49832L39.1953 5.24992C39.0256 4.94896 38.6537 4.84805 38.3648 5.02485C38.0758 5.2014 37.9789 5.58853 38.1486 5.8894L38.8523 7.1378C39.0917 7.56242 39.2181 8.04692 39.2181 8.53925V8.63603H37.9995C37.2974 8.63603 36.7262 9.23063 36.7262 9.96151V13.5671C36.7262 14.298 37.2974 14.8926 37.9995 14.8926H39.2233C39.2606 15.2043 39.5155 15.4456 39.825 15.4456H39.8533C40.3595 15.4456 40.7713 15.8742 40.7713 16.4012V17.4248H38.334C37.6039 16.1514 36.2674 15.2962 34.7421 15.2962C33.2168 15.2962 31.8803 16.1514 31.1501 17.4248H25.0522L25.8103 15.6647C25.8937 15.471 25.936 15.2651 25.936 15.0527V9.89951H29.9922C30.3274 9.89951 30.5991 9.61666 30.5991 9.26777C30.5991 8.91888 30.3274 8.63603 29.9922 8.63603H27.1501V3.7906H33.8084L33.8035 8.63603H32.5785C32.2433 8.63603 31.9716 8.91888 31.9716 9.26777C31.9716 9.61666 32.2433 9.89951 32.5785 9.89951H33.8035C34.4756 9.89951 35.0224 9.33027 35.0224 8.63064V3.56966C35.0224 2.99613 34.5742 2.52847 34.0176 2.52712H19.8958C19.6507 2.52712 19.4138 2.61936 19.229 2.78681L12.5995 8.79119C12.4085 8.9642 12.3407 9.24234 12.4294 9.48913C12.5181 9.73593 12.7447 9.89951 12.9978 9.89951H24.7221V15.0527C24.7221 15.0858 24.7155 15.1177 24.7026 15.1477L23.7219 17.4248H16.8041C16.469 17.4248 16.1973 17.7076 16.1973 18.0565C16.1973 18.4054 16.469 18.6883 16.8041 18.6883H30.6651C30.598 18.9973 30.5614 19.3182 30.5614 19.6482C30.5614 19.754 30.5663 19.8587 30.5735 19.9627H12.3189C12.3261 19.8587 12.331 19.754 12.331 19.6482C12.331 19.3183 12.2944 18.9973 12.2273 18.6883H14.218C14.5531 18.6883 14.8249 18.4054 14.8249 18.0565C14.8249 17.7076 14.5531 17.4248 14.218 17.4248H11.7424C11.3118 16.6739 10.6703 16.0692 9.90354 15.6988V9.55812L18.6125 1.67032C18.9021 1.40802 19.2731 1.26356 19.6569 1.26356H34.0175C34.957 1.26356 35.8361 1.78757 36.3116 2.63107L36.8379 3.56469C37.0075 3.86557 37.3793 3.96631 37.6685 3.78984C37.9575 3.61329 38.0544 3.22616 37.8848 2.9252L37.3585 1.99158C36.666 0.76314 35.3858 0 34.0176 0H19.657C18.9802 0 18.3263 0.254633 17.8159 0.717065L9.0697 8.63856H4.96208C2.6113 8.63865 0.698853 10.6295 0.698853 13.0766V19.8646C0.698853 20.6153 1.28557 21.2261 2.00678 21.2261H4.2556C4.86401 22.8476 6.37997 24 8.15049 24C9.92102 24 11.437 22.8477 12.0454 21.2261H30.8472C31.4556 22.8476 32.9716 24 34.7421 24C36.5127 24 38.0287 22.8477 38.6371 21.2261H40.6732C41.3965 21.2261 41.9851 20.6135 41.9851 19.8605V16.4012C41.985 15.3862 41.327 14.5282 40.4318 14.2652ZM37.9995 9.89943H39.218V11.1325H37.94V9.96142C37.94 9.92731 37.9667 9.89943 37.9995 9.89943ZM37.94 13.5671V12.3961H39.218V13.6291H37.9995C37.9667 13.6291 37.94 13.6013 37.94 13.5671ZM24.7219 3.79052H25.9363V8.63595H24.7219V3.79052ZM19.9699 3.79052H23.5082V8.63595H14.62L19.9699 3.79052ZM8.6898 9.90212V15.3336C8.51308 15.3098 8.33328 15.2962 8.15041 15.2962C6.62393 15.2962 5.28647 16.1528 4.55669 17.428C4.53662 17.4259 4.51631 17.4248 4.49576 17.4248H1.91259V14.2309H3.56312C4.57271 14.2309 5.39401 13.3758 5.39401 12.3249C5.39401 11.2739 4.57271 10.419 3.56312 10.419H3.29739C3.77641 10.0927 4.34809 9.90221 4.96208 9.90221L8.6898 9.90212ZM3.56312 11.6823C3.90345 11.6823 4.18027 11.9705 4.18027 12.3247C4.18027 12.679 3.90337 12.9672 3.56312 12.9672H1.91526C1.93031 12.5077 2.03915 12.0725 2.22323 11.6823H3.56312ZM2.00678 19.9626C1.95483 19.9626 1.91259 19.9186 1.91259 19.8646V18.6882H4.07362C4.00646 18.9972 3.96988 19.3181 3.96988 19.6481C3.96988 19.754 3.97482 19.8586 3.98202 19.9626H2.00678ZM8.15049 22.7364C6.51461 22.7364 5.18362 21.351 5.18362 19.648C5.18362 17.945 6.51453 16.5596 8.15049 16.5596C9.78645 16.5596 11.1174 17.945 11.1174 19.648C11.1174 21.351 9.78637 22.7364 8.15049 22.7364ZM34.7421 22.7364C33.1062 22.7364 31.7752 21.351 31.7752 19.648C31.7752 17.945 33.1061 16.5596 34.7421 16.5596C36.3781 16.5596 37.709 17.945 37.709 19.648C37.709 21.351 36.378 22.7364 34.7421 22.7364ZM40.6731 19.9626H38.9105C38.9177 19.8586 38.9226 19.754 38.9226 19.6481C38.9226 19.3182 38.886 18.9972 38.8189 18.6882H40.7712V19.8604C40.7712 19.9168 40.7272 19.9626 40.6731 19.9626Z" fill="#74BB20"/>
<path d="M23.1571 12.1515C23.4923 12.1515 23.764 11.8687 23.764 11.5198C23.764 11.1709 23.4923 10.8881 23.1571 10.8881H21.9909C21.6557 10.8881 21.384 11.1709 21.384 11.5198C21.384 11.8687 21.6557 12.1515 21.9909 12.1515H23.1571Z" fill="#74BB20"/>
</svg>
