<svg width="36" height="36" viewBox="0 0 36 36" fill="none" xmlns="http://www.w3.org/2000/svg">
<path d="M24.7203 22.5764C24.6099 22.2648 24.2721 22.1032 23.9658 22.2155C23.6595 22.3278 23.5007 22.6715 23.6111 22.9831C23.6138 22.9907 23.6167 22.9983 23.6197 23.0058C24.1574 24.4333 24.1963 25.5249 23.7258 26.0047C23.1551 26.584 21.7336 26.4029 19.9225 25.5213C17.4977 24.2405 15.2937 22.5673 13.3965 20.5672C8.77836 15.8686 6.87286 11.2582 8.05142 10.0593C8.42749 9.75715 8.91632 9.6411 9.38504 9.74261C9.70974 9.7669 9.99237 9.51875 10.0162 9.18843C10.0393 8.86913 9.81181 8.58768 9.49941 8.54908C8.67968 8.40153 7.83866 8.64466 7.21776 9.20882C5.05757 11.4058 8.35977 17.1365 12.5628 21.4129C14.5542 23.5092 16.8681 25.2613 19.4137 26.6002C19.8746 26.8248 20.3497 27.0181 20.8357 27.179L16.6468 28.7948C11.0532 26.6314 7.02652 21.5868 6.09345 15.5735C6.04297 15.2463 5.74125 15.0226 5.41957 15.0739C5.09788 15.1253 4.87797 15.4322 4.92845 15.7595C5.02101 16.3592 5.14482 16.959 5.29635 17.5456C6.65398 22.7785 10.2298 27.1256 15.0538 29.4077L8.15931 32.0617C8.1277 32.008 8.0879 31.9599 8.0414 31.919C6.28919 30.4879 5.18978 28.389 4.9992 26.1114L4.72564 22.7413C4.70412 22.4148 4.42643 22.1679 4.10541 22.1898C4.09929 22.1902 4.09317 22.1907 4.08713 22.1914C3.76257 22.2176 3.52033 22.5066 3.54612 22.8368L3.54649 22.8409L3.82477 26.2098C4.03201 28.6443 5.14836 30.9054 6.9442 32.5283L2.02598 34.4224L2.91034 30.7302C2.9875 30.4082 2.79353 30.0836 2.47701 30.0051C2.16048 29.9266 1.84137 30.1239 1.76421 30.4459L0.613956 35.2441C0.536427 35.5658 0.729954 35.8905 1.04626 35.9693C1.16226 35.9983 1.28408 35.9906 1.39573 35.9476L23.2099 27.5509C23.2446 27.5336 23.2774 27.5127 23.3078 27.4885C23.7799 27.4147 24.2176 27.1927 24.5595 26.8533C25.1437 26.259 25.6466 25.0337 24.7203 22.5764Z" fill="#74BB20"/>
<path d="M30.2841 21.0296C27.097 19.8158 23.6522 19.4755 20.295 20.043L18.1885 20.4028C17.8687 20.4654 17.6593 20.7797 17.7208 21.105C17.7802 21.4193 18.0716 21.6308 18.383 21.5856L20.489 21.2287C23.6419 20.6955 26.8772 21.0153 29.8703 22.156C29.9367 22.1799 30.0068 22.1919 30.0772 22.1914C30.4028 22.1919 30.6672 21.9239 30.6677 21.5926C30.6682 21.3418 30.5152 21.1172 30.2841 21.0296Z" fill="#74BB20"/>
<path d="M32.3801 11.7374C32.2401 11.4383 31.8882 11.3113 31.5942 11.4537L19.2131 17.4514C18.9192 17.5938 18.7942 17.9516 18.9342 18.2507C19.0741 18.5498 19.426 18.677 19.72 18.5346L32.1012 12.5369C32.3953 12.3945 32.5201 12.0365 32.3801 11.7374Z" fill="#74BB20"/>
<path d="M14.9158 4.0706C14.8509 3.74598 14.5397 3.53629 14.2206 3.60226C13.9015 3.66824 13.6953 3.98484 13.7602 4.30946C13.7616 4.31666 13.7632 4.32378 13.7649 4.3309C14.5112 7.72251 14.2036 11.2662 12.8847 14.4724L12.0274 16.5649C11.9035 16.8698 12.045 17.2193 12.344 17.347C12.4157 17.3777 12.4927 17.3934 12.5704 17.3932C12.8084 17.3932 13.023 17.2478 13.1146 17.0244L13.9724 14.9342C15.3856 11.4998 15.7152 7.70376 14.9158 4.0706Z" fill="#74BB20"/>
<path d="M33.0251 21.5916C32.0482 21.5916 31.2564 22.3971 31.2564 23.3909C31.2564 24.3846 32.0482 25.1902 33.0251 25.1902C34.0019 25.1902 34.7938 24.3846 34.7938 23.3909C34.7938 22.3971 34.0019 21.5916 33.0251 21.5916ZM33.0251 23.9906C32.6995 23.9906 32.4355 23.7221 32.4355 23.3909C32.4355 23.0597 32.6995 22.7911 33.0251 22.7911C33.3507 22.7911 33.6147 23.0597 33.6147 23.3909C33.6147 23.7221 33.3507 23.9906 33.0251 23.9906Z" fill="#74BB20"/>
<path d="M18.8753 4.79812C17.8985 4.79812 17.1066 5.60368 17.1066 6.59742C17.1066 7.59116 17.8985 8.39672 18.8753 8.39672C19.8522 8.39672 20.644 7.59116 20.644 6.59742C20.644 5.60368 19.8522 4.79812 18.8753 4.79812ZM18.8753 7.19719C18.5497 7.19719 18.2858 6.92864 18.2858 6.59742C18.2858 6.2662 18.5497 5.99765 18.8753 5.99765C19.2009 5.99765 19.4649 6.2662 19.4649 6.59742C19.4649 6.92864 19.2009 7.19719 18.8753 7.19719Z" fill="#74BB20"/>
<path d="M13.5692 2.39907C14.2204 2.39907 14.7483 1.86202 14.7483 1.19953C14.7483 0.537049 14.2204 0 13.5692 0C12.9179 0 12.39 0.537049 12.39 1.19953C12.39 1.86202 12.9179 2.39907 13.5692 2.39907Z" fill="#74BB20"/>
<path d="M30.0772 2.99883C29.7516 2.99883 29.4877 3.26737 29.4877 3.59859V4.19836C29.4877 4.52958 29.7516 4.79813 30.0772 4.79813C30.4028 4.79813 30.6668 4.52958 30.6668 4.19836V3.59859C30.6668 3.26737 30.4028 2.99883 30.0772 2.99883Z" fill="#74BB20"/>
<path d="M30.0772 0C29.7516 0 29.4877 0.268545 29.4877 0.599766V1.19953C29.4877 1.53075 29.7516 1.7993 30.0772 1.7993C30.4028 1.7993 30.6668 1.53075 30.6668 1.19953V0.599766C30.6668 0.268545 30.4028 0 30.0772 0Z" fill="#74BB20"/>
<path d="M31.8459 1.7993H31.2564C30.9308 1.7993 30.6668 2.06784 30.6668 2.39906C30.6668 2.73028 30.9308 2.99883 31.2564 2.99883H31.8459C32.1715 2.99883 32.4355 2.73028 32.4355 2.39906C32.4355 2.06784 32.1715 1.7993 31.8459 1.7993Z" fill="#74BB20"/>
<path d="M28.8981 1.7993H28.3085C27.9829 1.7993 27.7189 2.06784 27.7189 2.39906C27.7189 2.73028 27.9829 2.99883 28.3085 2.99883H28.8981C29.2237 2.99883 29.4877 2.73028 29.4877 2.39906C29.4877 2.06784 29.2237 1.7993 28.8981 1.7993Z" fill="#74BB20"/>
<path d="M25.9502 6.58483H22.9899C22.6644 6.58483 22.4004 6.85338 22.4004 7.1846V10.196C22.4004 10.5272 22.6644 10.7958 22.9899 10.7958H25.9502C26.2758 10.7958 26.5398 10.5272 26.5398 10.196V7.1846C26.5398 6.85338 26.2758 6.58483 25.9502 6.58483ZM25.3606 9.59626H23.5795V7.78436H25.3606V9.59626Z" fill="#74BB20"/>
<path d="M21.6552 11.5932C21.4388 11.3582 21.0786 11.339 20.8392 11.5497L14.9435 16.9476C14.7016 17.1692 14.6821 17.5483 14.8998 17.7945C15.1177 18.0405 15.4904 18.0604 15.7323 17.8389L21.628 12.441C21.8657 12.2145 21.8779 11.835 21.6552 11.5932Z" fill="#74BB20"/>
<path d="M32.4355 13.7946C32.1099 13.7946 31.8459 14.0632 31.8459 14.3944V14.9942C31.8459 15.3254 32.1099 15.5939 32.4355 15.5939C32.7611 15.5939 33.0251 15.3254 33.0251 14.9942V14.3944C33.0251 14.0632 32.7611 13.7946 32.4355 13.7946Z" fill="#74BB20"/>
<path d="M34.9371 13.6915L34.5202 13.2675C34.286 13.0373 33.9128 13.0439 33.6866 13.2822C33.4659 13.5146 33.4659 13.8831 33.6866 14.1156L34.1034 14.5396C34.3376 14.7698 34.7108 14.7632 34.9371 14.5249C35.1578 14.2924 35.1578 13.9239 34.9371 13.6915Z" fill="#74BB20"/>
<path d="M35.3834 11.3956H34.7938C34.4682 11.3956 34.2042 11.6641 34.2042 11.9953C34.2042 12.3266 34.4682 12.5951 34.7938 12.5951H35.3834C35.709 12.5951 35.973 12.3266 35.973 11.9953C35.973 11.6641 35.709 11.3956 35.3834 11.3956Z" fill="#74BB20"/>
<path d="M34.9226 9.45114C34.6941 9.22668 34.3319 9.22668 34.1034 9.45114L33.6866 9.87518C33.4563 10.1095 33.4564 10.4892 33.6867 10.7234C33.7972 10.8358 33.9471 10.899 34.1034 10.899C34.2598 10.899 34.4097 10.8357 34.5202 10.7232L34.937 10.2992C35.1633 10.061 35.1568 9.68122 34.9226 9.45114Z" fill="#74BB20"/>
<path d="M32.4355 8.39671C32.1099 8.39671 31.8459 8.66526 31.8459 8.99648V9.59624C31.8459 9.92747 32.1099 10.196 32.4355 10.196C32.7611 10.196 33.0251 9.92747 33.0251 9.59624V8.99648C33.0251 8.66526 32.7611 8.39671 32.4355 8.39671Z" fill="#74BB20"/>
<path d="M31.1844 9.87519L30.7676 9.45115C30.5334 9.22107 30.1602 9.22759 29.9339 9.46585C29.7133 9.69826 29.7133 10.0667 29.9339 10.2992L30.3508 10.7233C30.585 10.9534 30.9582 10.9468 31.1844 10.7086C31.4051 10.4761 31.4051 10.1076 31.1844 9.87519Z" fill="#74BB20"/>
<path d="M7.64473 2.5941C7.5753 2.37714 7.39084 2.2191 7.16894 2.18626L5.43854 1.93016L4.66679 0.335381C4.49478 0.0382721 4.11856 -0.0607643 3.8265 0.114218C3.73674 0.167972 3.66194 0.244067 3.6091 0.335381L2.83381 1.93016L1.10341 2.18626C0.781136 2.23357 0.557614 2.53772 0.604117 2.86557C0.622614 2.99609 0.682898 3.11672 0.775609 3.20886L2.02727 4.45038L1.73249 6.2035C1.67589 6.52969 1.8899 6.84082 2.21056 6.8984C2.33967 6.92157 2.47262 6.90035 2.58855 6.83805L4.13618 6.00797L5.68381 6.83565C5.97203 6.98979 6.3285 6.87711 6.48002 6.5839C6.54038 6.46717 6.56116 6.33349 6.53928 6.2035L6.24449 4.45038L7.49674 3.20886C7.65703 3.04925 7.71437 2.81099 7.64473 2.5941ZM5.19741 3.81163C5.05856 3.9492 4.99511 4.14742 5.02761 4.34182L5.17383 5.20848L4.41033 4.79884C4.23869 4.70715 4.03366 4.70715 3.86202 4.79884L3.09558 5.20788L3.24179 4.34122C3.27488 4.14757 3.21254 3.94965 3.07494 3.81163L2.4553 3.19807L3.31077 3.07152C3.50283 3.04318 3.66887 2.92045 3.75472 2.74344L4.13618 1.95595L4.51822 2.74344C4.604 2.9203 4.76975 3.04295 4.96158 3.07152L5.81646 3.19807L5.19741 3.81163Z" fill="#74BB20"/>
<path d="M33.9814 30.0633H33.979L33.7361 29.6926C32.3741 27.6207 30.2324 26.2118 27.8162 25.7983C27.4938 25.7516 27.1952 25.9795 27.1492 26.3074C27.1048 26.6242 27.3127 26.9207 27.6216 26.9811C29.3644 27.282 30.9527 28.1827 32.1207 29.5325C31.1387 29.7122 30.2798 30.3122 29.7624 31.18C29.1274 32.3369 29.5346 33.7983 30.6718 34.4443C31.809 35.0902 33.2456 34.676 33.8805 33.5191C34.1231 33.0428 34.254 32.5159 34.2632 31.9795C34.8905 32.9064 34.9407 34.1168 34.3923 35.0941C34.2262 35.379 34.3185 35.747 34.5986 35.9159C34.8786 36.0849 35.2403 35.991 35.4064 35.7061C35.4117 35.697 35.4168 35.6877 35.4217 35.6783C36.5012 33.7168 35.8653 31.2381 33.9814 30.0633ZM32.8523 32.9338C32.5376 33.5138 31.8204 33.7245 31.2502 33.4043C30.6801 33.0842 30.473 32.3545 30.7876 31.7746C30.7894 31.7713 30.7912 31.768 30.793 31.7648C31.1409 31.1853 31.7277 30.7968 32.3895 30.708C32.492 30.7052 32.5935 30.7292 32.6843 30.7776C33.1819 31.0601 33.2084 32.2848 32.8523 32.9338Z" fill="#74BB20"/>
</svg>
