<svg width="41" height="38" viewBox="0 0 41 38" fill="none" xmlns="http://www.w3.org/2000/svg">
<path d="M40.1632 17.3542C39.7627 16.0266 38.5411 15.1401 37.1906 15.1958L36.9025 15.2079C36.0576 15.2434 35.2628 15.6018 34.6675 16.2144L30.2143 20.7487C30.1088 20.5829 29.9877 20.4252 29.85 20.2782C29.2645 19.6522 28.4444 19.2935 27.6002 19.2935H21.3188C20.1336 19.2935 18.9779 19.1353 17.8833 18.8237C15.0322 18.0116 12.3118 18.5979 10.016 20.5189C9.04752 21.3297 8.35136 22.2144 7.92432 22.8396C7.4407 22.4936 6.86533 22.3121 6.26856 22.3225C5.51164 22.3359 4.80565 22.6518 4.28095 23.213L0.220872 27.5499C-0.078991 27.8701 -0.0728413 28.3792 0.235139 28.6918L3.50018 32.0058C3.81037 32.3205 4.31047 32.3172 4.61673 31.9977C4.9225 31.6783 4.9193 31.1642 4.60886 30.849L1.89927 28.099L5.41792 24.3399C5.6494 24.0926 5.96107 23.9529 6.29488 23.9473C6.63189 23.941 6.94454 24.0701 7.18438 24.3093L13.4623 30.5784C13.7017 30.8176 13.8362 31.1381 13.8409 31.4813C13.8456 31.8248 13.7199 32.1491 13.4869 32.3951L10.0293 36.0458L9.13952 35.1738C8.82367 34.8642 8.32406 34.8769 8.02321 35.2019C7.72286 35.5269 7.73516 36.041 8.05101 36.3501L9.50555 37.776C9.65856 37.9256 9.85437 38 10.0499 38C10.2556 38 10.4607 37.9177 10.6155 37.7547L14.6177 33.5289C15.1454 32.972 15.43 32.2367 15.4197 31.4591C15.4147 31.1034 15.3478 30.7584 15.2253 30.4369L16.6351 30.2681C17.2892 30.1898 17.9546 30.1498 18.6131 30.1498H28.1706C28.317 30.1498 28.4651 30.1435 28.6109 30.1309L29.5268 30.0524C30.4551 29.9732 31.3498 29.6416 32.1146 29.0943C32.49 28.8255 32.8304 28.5075 33.1266 28.1488L39.5669 20.3518C40.2551 19.5188 40.4778 18.3984 40.1632 17.3542ZM38.364 19.2996L31.9234 27.0966C31.7156 27.3482 31.4765 27.5714 31.2128 27.7603C30.6758 28.1448 30.0473 28.3774 29.3959 28.4334L28.4796 28.5118C28.3775 28.5207 28.2732 28.5252 28.1706 28.5252H18.6131C17.8938 28.5252 17.1669 28.5685 16.4528 28.6538L14.17 28.9272L9.11984 23.9162C9.46373 23.3917 10.0957 22.5462 11.0122 21.7795C12.9216 20.182 15.0915 19.7142 17.4621 20.3893C18.6938 20.7401 19.9914 20.9178 21.3188 20.9178H27.6002C28.0176 20.9178 28.4232 21.0955 28.713 21.4049C28.9248 21.6312 29.0591 21.9086 29.1145 22.1995C29.1135 22.2729 29.1223 22.346 29.1408 22.4171C29.1617 22.7981 29.0508 23.1864 28.8043 23.5021L28.7799 23.5335C28.4855 23.9111 28.0464 24.1281 27.5756 24.1281H22.1072C21.671 24.1281 21.3178 24.4916 21.3178 24.9401C21.3178 25.3889 21.671 25.7527 22.1072 25.7527H27.5756C28.5278 25.7527 29.4156 25.3143 30.0116 24.5495L30.0359 24.5184C30.4925 23.9332 30.7188 23.2249 30.721 22.5181L35.7806 17.3661C36.0979 17.0398 36.519 16.8497 36.967 16.831L37.2553 16.8191C37.8919 16.7913 38.4668 17.2102 38.6552 17.8357C38.809 18.3455 38.7 18.8928 38.364 19.2996Z" fill="#74BB20"/>
<path d="M6.27717 25.6604C5.09839 25.6604 4.13951 26.6474 4.13951 27.8602C4.13951 29.0734 5.09839 30.0604 6.27717 30.0604C7.45596 30.0604 8.41507 29.0734 8.41507 27.8602C8.41507 26.6474 7.45596 25.6604 6.27717 25.6604ZM6.27717 28.4355C5.96895 28.4355 5.71804 28.1776 5.71804 27.8602C5.71804 27.5432 5.96895 27.2853 6.27717 27.2853C6.58515 27.2853 6.83606 27.5432 6.83606 27.8602C6.83606 28.1776 6.58515 28.4355 6.27717 28.4355Z" fill="#74BB20"/>
<path d="M18.7528 24.2478L18.7122 24.2577C18.2879 24.3602 18.0242 24.7976 18.1243 25.2342C18.2094 25.6084 18.5339 25.861 18.892 25.861C18.9516 25.861 19.0126 25.8536 19.0731 25.839L19.1139 25.8293C19.5383 25.7268 19.8015 25.2894 19.7018 24.8528C19.6022 24.4161 19.1774 24.1458 18.7528 24.2478Z" fill="#74BB20"/>
<path d="M6.17557 32.8452L6.13473 32.8551C5.7104 32.9579 5.44719 33.3948 5.54681 33.8315C5.63217 34.2058 5.95639 34.4582 6.31455 34.4582C6.37457 34.4582 6.43509 34.4514 6.49609 34.4367L6.53668 34.4271C6.96102 34.3246 7.22447 33.8871 7.1246 33.4505C7.02498 33.0136 6.5999 32.743 6.17557 32.8452Z" fill="#74BB20"/>
<path d="M23.1044 17.195C27.7113 17.195 31.4592 13.3383 31.4592 8.59764C31.4592 3.85698 27.7113 0 23.1044 0C21.2147 0 19.4322 0.633337 17.9497 1.83116C17.6109 2.10454 17.2904 2.40729 16.9967 2.7313C16.5574 3.21554 16.1724 3.75193 15.8528 4.32477C15.1309 5.61954 14.7496 7.09733 14.7496 8.59764C14.7496 13.3383 18.4975 17.195 23.1044 17.195ZM17.2223 5.13327C17.4815 4.66827 17.7937 4.23313 18.1506 3.84002C18.389 3.57676 18.6495 3.33122 18.9243 3.10923C20.1267 2.13821 21.5721 1.62486 23.1044 1.62486C26.8405 1.62486 29.8805 4.75256 29.8805 8.59764C29.8805 12.4425 26.8405 15.5704 23.1044 15.5704C19.368 15.5704 16.3281 12.4425 16.3281 8.59764C16.3281 7.38033 16.6373 6.18251 17.2223 5.13327Z" fill="#74BB20"/>
<path d="M23.8045 11.3781C23.4862 11.5727 23.0727 11.6418 22.7922 11.6418C22.2599 11.6418 21.7933 10.9963 21.7933 10.2607C21.7933 9.81219 21.4398 9.44844 21.0039 9.44844C20.5677 9.44844 20.2145 9.81219 20.2145 10.2607C20.2145 11.6677 21.0474 12.8513 22.1687 13.1771C22.1942 13.6021 22.5362 13.939 22.9556 13.939C23.3863 13.939 23.7359 13.5839 23.7442 13.1424C24.8844 12.8379 25.8684 11.9643 25.8684 10.4377C25.8684 8.60728 24.052 7.60868 23.1192 7.60868C23.1074 7.60868 21.9485 7.50261 21.9485 6.73993C21.9485 5.56868 23.1074 5.53578 23.1192 5.53578C23.3386 5.53578 23.6055 5.66994 23.8158 5.88636C23.9169 5.99065 23.9277 6.00154 23.9277 6.43946C23.9277 6.88801 24.2815 7.24999 24.7171 7.24999C25.153 7.24999 25.5068 6.88497 25.5068 6.43617C25.5068 5.91699 25.5068 5.32871 24.9324 4.7374C24.587 4.38251 24.1732 4.12988 23.7428 4.00382C23.7186 3.57729 23.3762 3.2386 22.9556 3.2386C22.5197 3.2386 22.1662 3.6026 22.1662 4.05116V4.10431C21.3038 4.43414 20.3697 5.2224 20.3697 6.73993C20.3697 8.60121 22.2498 9.2305 23.1135 9.23303C23.3506 9.25277 24.2893 9.68057 24.2893 10.4374C24.2893 10.8829 24.14 11.1728 23.8045 11.3781Z" fill="#74BB20"/>
</svg>
