<svg width="29" height="34" viewBox="0 0 29 34" fill="none" xmlns="http://www.w3.org/2000/svg">
<path d="M12.6111 25.4074H9.55165C9.19632 25.4074 8.90823 25.6977 8.90823 26.0555C8.90823 26.4134 9.19639 26.7036 9.55165 26.7036H12.6111C12.9665 26.7036 13.2545 26.4135 13.2545 26.0555C13.2545 25.6977 12.9665 25.4074 12.6111 25.4074Z" fill="#74BB20"/>
<path d="M26.3185 5.95838L20.5919 0.189853C20.4712 0.0683187 20.3075 0 20.1369 0H2.44216C1.37778 0 0.511841 0.872327 0.511841 1.94449V31.2408C0.511841 32.3129 1.37778 33.1852 2.44216 33.1852H14.7333C15.0886 33.1852 15.3767 32.8949 15.3767 32.5371C15.3767 32.1792 15.0886 31.8889 14.7333 31.8889H2.44216C2.08735 31.8889 1.79874 31.5982 1.79874 31.2408V1.94449C1.79874 1.58708 2.08741 1.29637 2.44216 1.29637H19.4934V5.1204C19.4934 6.19256 20.3593 7.06483 21.4237 7.06483H25.22V18.6018C25.22 18.9597 25.5082 19.2499 25.8634 19.2499C26.2187 19.2499 26.5069 18.9597 26.5069 18.6018V6.41664C26.507 6.24474 26.4392 6.07991 26.3185 5.95838ZM21.4238 5.76852C21.069 5.76852 20.7804 5.47775 20.7804 5.1204V2.21297L24.3102 5.76852H21.4238Z" fill="#74BB20"/>
<path d="M20.726 18.1481H9.55156C9.19623 18.1481 8.90814 18.4383 8.90814 18.7962C8.90814 19.1541 9.1963 19.4443 9.55156 19.4443H20.726C21.0814 19.4443 21.3695 19.1541 21.3695 18.7962C21.3695 18.4383 21.0814 18.1481 20.726 18.1481Z" fill="#74BB20"/>
<path d="M7.3699 18.1481H5.2733C4.91797 18.1481 4.62988 18.4383 4.62988 18.7962C4.62988 19.1541 4.91803 19.4443 5.2733 19.4443H7.3699C7.72523 19.4443 8.01332 19.1541 8.01332 18.7962C8.01332 18.4383 7.72523 18.1481 7.3699 18.1481Z" fill="#74BB20"/>
<path d="M13.0705 21.7777H9.55156C9.19623 21.7777 8.90814 22.0679 8.90814 22.4258C8.90814 22.7836 9.1963 23.0739 9.55156 23.0739H13.0705C13.4258 23.0739 13.7139 22.7837 13.7139 22.4258C13.7139 22.0679 13.4258 21.7777 13.0705 21.7777Z" fill="#74BB20"/>
<path d="M7.3699 21.7777H5.2733C4.91797 21.7777 4.62988 22.0679 4.62988 22.4258C4.62988 22.7836 4.91803 23.0739 5.2733 23.0739H7.3699C7.72523 23.0739 8.01332 22.7836 8.01332 22.4258C8.01332 22.0679 7.72523 21.7777 7.3699 21.7777Z" fill="#74BB20"/>
<path d="M10.0063 25.5972C9.88663 25.4766 9.72119 25.4073 9.55137 25.4073C9.38213 25.4073 9.21676 25.4766 9.09643 25.5972C8.97674 25.7178 8.90789 25.885 8.90789 26.0555C8.90789 26.2259 8.97668 26.3932 9.09643 26.5137C9.21612 26.6342 9.38213 26.7037 9.55137 26.7037C9.72125 26.7037 9.88663 26.6343 10.0063 26.5137C10.1266 26.3932 10.1949 26.2259 10.1949 26.0555C10.1949 25.885 10.1266 25.7178 10.0063 25.5972Z" fill="#74BB20"/>
<path d="M7.3699 25.4073H5.2733C4.91797 25.4073 4.62988 25.6975 4.62988 26.0554C4.62988 26.4133 4.91803 26.7035 5.2733 26.7035H7.3699C7.72523 26.7035 8.01332 26.4133 8.01332 26.0554C8.01338 25.6975 7.72523 25.4073 7.3699 25.4073Z" fill="#74BB20"/>
<path d="M11.805 9.26259H10.2659V7.69681C10.2659 7.37136 10.0065 7.10761 9.68669 7.10761C9.36689 7.10761 9.1075 7.37142 9.1075 7.69681V9.26259H7.56833C7.24848 9.26259 6.98915 9.5264 6.98915 9.85179C6.98915 10.1772 7.24848 10.441 7.56833 10.441H9.1075V12.0068C9.1075 12.3322 9.36689 12.596 9.68669 12.596C10.0065 12.596 10.2659 12.3322 10.2659 12.0068V10.441H11.805C12.1249 10.441 12.3842 10.1772 12.3842 9.85179C12.3842 9.5264 12.1249 9.26259 11.805 9.26259Z" fill="#74BB20"/>
<path d="M9.68663 4.66666C6.87614 4.66666 4.58957 6.99276 4.58957 9.85185C4.58957 12.7109 6.87614 15.037 9.68663 15.037C12.4971 15.037 14.7837 12.7109 14.7837 9.85185C14.7837 6.99276 12.4971 4.66666 9.68663 4.66666ZM9.68663 13.8585C7.51487 13.8585 5.748 12.0611 5.748 9.85179C5.748 7.64248 7.51487 5.84506 9.68663 5.84506C11.8584 5.84506 13.6253 7.64248 13.6253 9.85179C13.6253 12.0611 11.8584 13.8585 9.68663 13.8585Z" fill="#74BB20"/>
<path fill-rule="evenodd" clip-rule="evenodd" d="M18.0967 22.5556V31.8889H26.7617V22.5556H18.0967ZM17.8419 21.2593C17.2789 21.2593 16.8225 21.7236 16.8225 22.2963V32.1481C16.8225 32.7209 17.2789 33.1852 17.8419 33.1852H27.0166C27.5796 33.1852 28.036 32.7209 28.036 32.1481V22.2963C28.036 21.7236 27.5796 21.2593 27.0166 21.2593H17.8419Z" fill="#74BB20"/>
<path fill-rule="evenodd" clip-rule="evenodd" d="M26.1028 25.0408C26.3018 25.2432 26.3018 25.5716 26.1028 25.7741L21.6647 30.2888L19.0106 27.5889C18.8115 27.3864 18.8115 27.0581 19.0106 26.8556C19.2096 26.6531 19.5324 26.6531 19.7314 26.8556L21.6647 28.8223L25.3819 25.0408C25.581 24.8383 25.9037 24.8383 26.1028 25.0408Z" fill="#74BB20"/>
</svg>
