<svg width="40" height="31" viewBox="0 0 40 31" fill="none" xmlns="http://www.w3.org/2000/svg">
<path d="M38.9123 2.69565H36.9463V0.673913C36.9463 0.49518 36.8773 0.323768 36.7544 0.197385C36.6315 0.0710015 36.4648 0 36.291 0H22.5289C22.0185 0.00203096 21.5156 0.126801 21.0605 0.36434C20.6053 0.601879 20.2105 0.945601 19.9076 1.36804C19.6046 0.945601 19.2098 0.601879 18.7547 0.36434C18.2995 0.126801 17.7966 0.00203096 17.2862 0H3.52415C3.35034 0 3.18366 0.0710015 3.06076 0.197385C2.93786 0.323768 2.86881 0.49518 2.86881 0.673913V2.69565H0.902804C0.728997 2.69565 0.56231 2.76665 0.439411 2.89304C0.316511 3.01942 0.247467 3.19083 0.247467 3.36957V30.3261C0.247467 30.5048 0.316511 30.6762 0.439411 30.8026C0.56231 30.929 0.728997 31 0.902804 31H38.9123C39.0861 31 39.2528 30.929 39.3757 30.8026C39.4986 30.6762 39.5677 30.5048 39.5677 30.3261V3.36957C39.5677 3.19083 39.4986 3.01942 39.3757 2.89304C39.2528 2.76665 39.0861 2.69565 38.9123 2.69565ZM1.55814 29.6522V4.04348H2.86881V27.6304C2.86881 27.8092 2.93786 27.9806 3.06076 28.107C3.18366 28.2333 3.35034 28.3043 3.52415 28.3043H17.2862C17.6916 28.3065 18.0865 28.437 18.4172 28.6782C18.7479 28.9194 18.9982 29.2595 19.1343 29.6522H1.55814ZM19.2522 27.6507C18.6893 27.2026 17.9981 26.9586 17.2862 26.9565H4.17949V1.34783H17.2862C17.8072 1.34943 18.3063 1.56294 18.6747 1.94175C19.043 2.32055 19.2507 2.83386 19.2522 3.36957V27.6507ZM19.9076 28.3246L19.8879 28.3043H19.9272L19.9076 28.3246ZM20.5629 3.36957C20.5645 2.83386 20.7721 2.32055 21.1404 1.94175C21.5088 1.56294 22.008 1.34943 22.5289 1.34783H35.6356V26.9565H22.5289C21.8171 26.9586 21.1258 27.2026 20.5629 27.6507V3.36957ZM38.257 29.6522H20.6809C20.8169 29.2595 21.0673 28.9194 21.3979 28.6782C21.7286 28.437 22.1235 28.3065 22.5289 28.3043H36.291C36.4648 28.3043 36.6315 28.2333 36.7544 28.107C36.8773 27.9806 36.9463 27.8092 36.9463 27.6304V4.04348H38.257V29.6522Z" fill="#74BB20"/>
<path d="M29.7376 2.69565C29.0424 2.69565 28.3756 2.97966 27.884 3.48519C27.3924 3.99072 27.1163 4.67637 27.1163 5.3913V21.5652C27.1163 21.6862 27.148 21.8049 27.208 21.9089L29.174 25.2785C29.232 25.379 29.3145 25.4623 29.4133 25.5202C29.5121 25.5781 29.6239 25.6085 29.7376 25.6085C29.8513 25.6085 29.9631 25.5781 30.0619 25.5202C30.1607 25.4623 30.2432 25.379 30.3012 25.2785L32.2672 21.9089C32.3272 21.8049 32.3589 21.6862 32.359 21.5652V5.3913C32.359 4.67637 32.0828 3.99072 31.5912 3.48519C31.0996 2.97966 30.4328 2.69565 29.7376 2.69565ZM29.7376 23.6274L28.6563 21.7674L29.7376 21.0261L30.8189 21.7674L29.7376 23.6274ZM31.0483 20.305L30.3929 19.8535V10.7826H29.0823V19.8535L28.4269 20.305V9.43478H31.0483V20.305ZM31.0483 8.08696H28.4269V6.73913H31.0483V8.08696ZM28.4269 5.3913C28.4269 5.03384 28.565 4.69101 28.8108 4.43825C29.0566 4.18548 29.39 4.04348 29.7376 4.04348C30.0852 4.04348 30.4186 4.18548 30.6644 4.43825C30.9102 4.69101 31.0483 5.03384 31.0483 5.3913H28.4269Z" fill="#74BB20"/>
<path d="M5.49016 3.36957H17.9416V4.71739H5.49016V3.36957Z" fill="#74BB20"/>
<path d="M5.49016 6.06522H12.6989V7.41304H5.49016V6.06522Z" fill="#74BB20"/>
<path d="M14.0095 6.06522H17.9416V7.41304H14.0095V6.06522Z" fill="#74BB20"/>
<path d="M5.49016 8.76087H8.11151V10.1087H5.49016V8.76087Z" fill="#74BB20"/>
<path d="M9.42218 8.76087H17.9416V10.1087H9.42218V8.76087Z" fill="#74BB20"/>
</svg>
