<svg width="36" height="36" viewBox="0 0 36 36" fill="none" xmlns="http://www.w3.org/2000/svg">
<path d="M33.3602 18.4663C33.216 18.1699 33.216 17.8301 33.3602 17.5338L34.6975 14.787C35.4421 13.2577 34.8522 11.4349 33.3545 10.637L30.6646 9.20407C30.3744 9.04953 30.1754 8.77447 30.1187 8.4497L29.5926 5.43832C29.2996 3.76167 27.7549 2.63499 26.0765 2.87342L23.0614 3.30162C22.736 3.34774 22.4142 3.2427 22.1781 3.01341L19.9896 0.887747C18.771 -0.29588 16.862 -0.295951 15.6434 0.887747L13.4548 3.01362C13.2187 3.24298 12.8969 3.34781 12.5715 3.30183L9.55648 2.87363C7.87749 2.63506 6.33331 3.76188 6.04037 5.43853L5.5143 8.44977C5.4575 8.77461 5.25855 9.0496 4.96841 9.20421L2.27853 10.6372C0.780846 11.4349 0.190906 13.2579 0.935474 14.7872L2.27271 17.5339C2.41698 17.8303 2.41698 18.1701 2.27271 18.4664L0.935404 21.2131C0.190836 22.7424 0.780776 24.5653 2.27845 25.3631L4.96834 26.7961C5.25855 26.9506 5.4575 27.2257 5.5143 27.5504L6.04037 30.5618C6.30705 32.0881 7.6106 33.1586 9.10877 33.1584C9.25633 33.1584 9.40605 33.148 9.55655 33.1266L12.5716 32.6984C12.8967 32.6521 13.2187 32.7574 13.4549 32.9866L15.6434 35.1123C16.2528 35.7042 17.0345 36.0001 17.8165 36C18.5982 35.9999 19.3804 35.7041 19.9895 35.1123L22.1781 32.9866C22.4143 32.7574 22.7361 32.6526 23.0614 32.6984L26.0765 33.1266C27.7557 33.3651 29.2996 32.2384 29.5926 30.5617L30.1187 27.5505C30.1755 27.2257 30.3745 26.9507 30.6646 26.7961L33.3545 25.3631C34.8522 24.5653 35.4421 22.7424 34.6975 21.213L33.3602 18.4663ZM32.3852 23.5289L29.6953 24.9618C28.8377 25.4188 28.2495 26.2315 28.0818 27.1916L27.5557 30.2029C27.4566 30.7702 26.9343 31.1512 26.3661 31.0707L23.3511 30.6425C22.3896 30.5058 21.4381 30.8165 20.7403 31.4942L18.5517 33.6198C18.1395 34.0202 17.4936 34.0202 17.0812 33.6198L14.8927 31.4941C14.3029 30.9213 13.5318 30.6109 12.7269 30.6109C12.5794 30.6109 12.4308 30.6213 12.2819 30.6425L9.26683 31.0707C8.69916 31.1512 8.17638 30.7701 8.07722 30.2029L7.55108 27.1915C7.38328 26.2313 6.79516 25.4186 5.9375 24.9618L3.24761 23.5288C2.74087 23.2589 2.54128 22.6422 2.79318 22.1248L4.13049 19.378C4.55684 18.5022 4.55684 17.4978 4.13049 16.622L2.79318 13.8752C2.54128 13.3578 2.74087 12.7411 3.24761 12.4712L5.9375 11.0382C6.79509 10.5813 7.38328 9.76861 7.55101 8.80843L8.07708 5.79712C8.17624 5.22985 8.69853 4.84876 9.26669 4.92933L12.2817 5.35753C13.2429 5.49415 14.1947 5.18358 14.8925 4.50585L17.0812 2.38018C17.4934 1.97983 18.1392 1.97983 18.5516 2.38018L20.7401 4.50585C21.438 5.18365 22.3896 5.49415 23.3509 5.35753L26.366 4.92933C26.9337 4.84869 27.4565 5.22985 27.5556 5.79712L28.0817 8.8085C28.2495 9.76868 28.8376 10.5814 29.6952 11.0382L32.3851 12.4712C32.8919 12.7411 33.0915 13.3578 32.8396 13.8752L31.5023 16.6219C31.0759 17.4976 31.0759 18.5022 31.5023 19.378L32.8396 22.1246C33.0915 22.6422 32.8919 23.259 32.3852 23.5289Z" fill="#74BB20"/>
<path d="M25.3717 10.4144C24.968 10.009 24.3132 10.009 23.9094 10.4144L10.2611 24.1175C9.85733 24.5229 9.85733 25.1802 10.2611 25.5856C10.463 25.7883 10.7277 25.8897 10.9923 25.8897C11.2568 25.8897 11.5215 25.7884 11.7234 25.5856L25.3716 11.8827C25.7756 11.4772 25.7756 10.8199 25.3717 10.4144Z" fill="#74BB20"/>
<path d="M13.6804 8.65663C11.5898 8.65663 9.88899 10.3643 9.88899 12.4632C9.88899 14.5622 11.5898 16.2698 13.6804 16.2698C15.7709 16.2698 17.4718 14.5622 17.4718 12.4632C17.4718 10.3643 15.7709 8.65663 13.6804 8.65663ZM13.6804 14.1935C12.7301 14.1935 11.9571 13.4173 11.9571 12.4632C11.9571 11.5091 12.7301 10.7329 13.6804 10.7329C14.6306 10.7329 15.4038 11.5091 15.4038 12.4632C15.4037 13.4173 14.6306 14.1935 13.6804 14.1935Z" fill="#74BB20"/>
<path d="M21.9524 19.7303C19.8619 19.7303 18.161 21.438 18.161 23.5369C18.161 25.6358 19.8619 27.3435 21.9524 27.3435C24.043 27.3435 25.7438 25.6358 25.7438 23.5369C25.7438 21.438 24.043 19.7303 21.9524 19.7303ZM21.9524 25.2671C21.0022 25.2671 20.229 24.491 20.229 23.5369C20.229 22.5828 21.0021 21.8067 21.9524 21.8067C22.9027 21.8067 23.6757 22.5828 23.6757 23.5369C23.6757 24.491 22.9027 25.2671 21.9524 25.2671Z" fill="#74BB20"/>
</svg>
