<svg width="36" height="35" viewBox="0 0 36 35" fill="none" xmlns="http://www.w3.org/2000/svg">
<path d="M28.7186 10.1685C29.0896 10.1685 29.3906 9.86241 29.3906 9.48486V2.05078C29.3906 0.91998 28.4862 0 27.3746 0H2.91399C1.80238 0 0.89801 0.91998 0.89801 2.05078V32.9492C0.89801 34.08 1.80238 35 2.91399 35H27.3746C28.4862 35 29.3906 34.08 29.3906 32.9492V27.913C29.3906 27.5355 29.0896 27.2295 28.7186 27.2295C28.3475 27.2295 28.0466 27.5355 28.0466 27.913V32.9492C28.0466 33.3262 27.7451 33.6328 27.3746 33.6328H2.91399C2.54345 33.6328 2.242 33.3262 2.242 32.9492V2.05078C2.242 1.67385 2.54345 1.36719 2.91399 1.36719H27.3746C27.7451 1.36719 28.0466 1.67385 28.0466 2.05078V9.48486C28.0466 9.86241 28.3475 10.1685 28.7186 10.1685Z" fill="#74BB20"/>
<path d="M15.1443 3.69141C11.7353 3.69141 8.96194 6.51267 8.96194 9.98047C8.96194 11.7795 9.70852 13.4042 10.9028 14.5516C10.9252 14.5759 10.949 14.599 10.975 14.62C12.0751 15.6439 13.5392 16.2695 15.1442 16.2695C16.7493 16.2695 18.2134 15.6438 19.3135 14.62C19.3395 14.599 19.3633 14.5759 19.3856 14.5516C20.58 13.4042 21.3266 11.7795 21.3266 9.98047C21.3266 6.51267 18.5532 3.69141 15.1443 3.69141ZM15.1443 14.9023C14.047 14.9023 13.0343 14.5283 12.2217 13.8996C12.8123 12.8343 13.9145 12.168 15.1443 12.168C16.3741 12.168 17.4762 12.8343 18.0669 13.8996C17.2542 14.5283 16.2416 14.9023 15.1443 14.9023ZM14.0691 9.70703V9.2627C14.0691 8.65963 14.5515 8.16895 15.1443 8.16895C15.7371 8.16895 16.2195 8.65963 16.2195 9.2627V9.70703C16.2195 10.3101 15.7371 10.8008 15.1443 10.8008C14.5515 10.8008 14.0691 10.3101 14.0691 9.70703ZM19.0378 12.8983C18.5422 12.1505 17.8554 11.569 17.0579 11.21C17.3744 10.7939 17.5635 10.2726 17.5635 9.70703V9.2627C17.5635 7.90569 16.4783 6.80176 15.1443 6.80176C13.8103 6.80176 12.7251 7.90569 12.7251 9.2627V9.70703C12.7251 10.2726 12.9141 10.7939 13.2306 11.21C12.4332 11.569 11.7463 12.1505 11.2508 12.8983C10.6574 12.0812 10.3059 11.072 10.3059 9.98047C10.3059 7.26653 12.4764 5.05859 15.1443 5.05859C17.8122 5.05859 19.9826 7.26653 19.9826 9.98047C19.9826 11.072 19.6311 12.0812 19.0378 12.8983Z" fill="#74BB20"/>
<path d="M18.7731 29.9414H15.1443C14.7732 29.9414 14.4723 30.2475 14.4723 30.625C14.4723 31.0025 14.7732 31.3086 15.1443 31.3086H18.7731C19.1441 31.3086 19.445 31.0025 19.445 30.625C19.445 30.2475 19.1441 29.9414 18.7731 29.9414Z" fill="#74BB20"/>
<path d="M18.7731 26.1133H9.23074C8.85966 26.1133 8.55874 26.4193 8.55874 26.7969C8.55874 27.1744 8.85966 27.4805 9.23074 27.4805H18.7731C19.1441 27.4805 19.445 27.1744 19.445 26.7969C19.445 26.4193 19.1441 26.1133 18.7731 26.1133Z" fill="#74BB20"/>
<path d="M18.7731 22.2852H9.23074C8.85966 22.2852 8.55874 22.5912 8.55874 22.9688C8.55874 23.3463 8.85966 23.6523 9.23074 23.6523H18.7731C19.1441 23.6523 19.445 23.3463 19.445 22.9688C19.445 22.5912 19.1441 22.2852 18.7731 22.2852Z" fill="#74BB20"/>
<path d="M6.83568 18.6573C6.71076 18.5302 6.53738 18.457 6.35998 18.457C6.18318 18.457 6.0098 18.5302 5.88488 18.6573C5.75989 18.7845 5.68798 18.9608 5.68798 19.1406C5.68798 19.3204 5.75982 19.4968 5.88488 19.6239C6.01054 19.7511 6.18318 19.8242 6.35998 19.8242C6.53738 19.8242 6.71009 19.7511 6.83568 19.6239C6.96067 19.4968 7.03264 19.3204 7.03264 19.1406C7.03264 18.9608 6.96074 18.7845 6.83568 18.6573Z" fill="#74BB20"/>
<path d="M6.83568 22.4854C6.71009 22.3583 6.53738 22.2852 6.35998 22.2852C6.18318 22.2852 6.01054 22.3583 5.88488 22.4854C5.75989 22.6126 5.68798 22.789 5.68798 22.9688C5.68798 23.1485 5.75982 23.3249 5.88488 23.4521C6.01054 23.5792 6.18318 23.6523 6.35998 23.6523C6.53738 23.6523 6.71009 23.5792 6.83568 23.4521C6.96067 23.3249 7.03264 23.1485 7.03264 22.9688C7.03264 22.789 6.96074 22.6126 6.83568 22.4854Z" fill="#74BB20"/>
<path d="M6.83568 26.3136C6.71009 26.1864 6.53738 26.1133 6.35998 26.1133C6.18318 26.1133 6.01054 26.1864 5.88488 26.3136C5.75989 26.4407 5.68798 26.6171 5.68798 26.7969C5.68798 26.9767 5.75982 27.153 5.88488 27.2802C6.0098 27.4073 6.18318 27.4805 6.35998 27.4805C6.53738 27.4805 6.71076 27.4073 6.83568 27.2802C6.96067 27.153 7.03264 26.9767 7.03264 26.7969C7.03264 26.6171 6.96074 26.4407 6.83568 26.3136Z" fill="#74BB20"/>
<path d="M18.7731 18.457H9.23074C8.85966 18.457 8.55874 18.7631 8.55874 19.1406C8.55874 19.5182 8.85966 19.8242 9.23074 19.8242H18.7731C19.1441 19.8242 19.445 19.5182 19.445 19.1406C19.445 18.7631 19.1441 18.457 18.7731 18.457Z" fill="#74BB20"/>
<path d="M33.8926 8.90859C33.2397 8.52517 32.4792 8.42331 31.7509 8.62176C31.0227 8.82027 30.414 9.29537 30.0371 9.95948L21.5806 24.8593C21.5343 24.941 21.505 25.0316 21.4948 25.1253L20.8995 30.5492C20.8699 30.8191 21.0002 31.0812 21.2313 31.2171C21.3357 31.2783 21.4516 31.3087 21.5673 31.3087C21.7079 31.3087 21.8479 31.2639 21.9658 31.1755L26.2857 27.9391C26.3603 27.8832 26.4228 27.8122 26.4691 27.7305L34.9256 12.8306C35.7037 11.4596 35.2403 9.7002 33.8926 8.90859ZM22.4056 29.148L22.7164 26.3158L24.6613 27.458L22.4056 29.148ZM25.6412 26.4548L23.0806 24.9509L29.8667 12.9942L32.4274 14.4981L25.6412 26.4548ZM33.7617 12.147L33.0993 13.3141L30.5387 11.8102L31.201 10.6431C31.3985 10.2952 31.7173 10.0464 32.0987 9.94239C32.4803 9.83835 32.8786 9.89181 33.2205 10.0926C33.5625 10.2935 33.8071 10.6178 33.9093 11.0058C34.0115 11.3938 33.9591 11.7991 33.7617 12.147Z" fill="#74BB20"/>
</svg>
