<svg width="38" height="38" viewBox="0 0 38 38" fill="none" xmlns="http://www.w3.org/2000/svg">
<path d="M35.6999 7.6H28.2291V1.9C28.2291 1.39609 28.0323 0.912816 27.6821 0.556497C27.3318 0.200178 26.8567 0 26.3614 0H11.4197C10.9244 0 10.4493 0.200178 10.0991 0.556497C9.74879 0.912816 9.55202 1.39609 9.55202 1.9V7.6H2.08118C1.58583 7.6 1.11077 7.80018 0.76051 8.1565C0.410246 8.51282 0.21347 8.99609 0.21347 9.5V33.5667C0.21347 34.0706 0.410246 34.5538 0.76051 34.9102C1.11077 35.2665 1.58583 35.4667 2.08118 35.4667H18.8906V37.3667C18.8906 37.5346 18.9562 37.6957 19.0729 37.8145C19.1897 37.9333 19.348 38 19.5131 38H36.9451C37.1102 38 37.2686 37.9333 37.3853 37.8145C37.5021 37.6957 37.5676 37.5346 37.5676 37.3667V9.5C37.5676 8.99609 37.3709 8.51282 37.0206 8.1565C36.6703 7.80018 36.1953 7.6 35.6999 7.6ZM10.7972 1.9C10.7972 1.73203 10.8627 1.57094 10.9795 1.45217C11.0963 1.33339 11.2546 1.26667 11.4197 1.26667H26.3614C26.5265 1.26667 26.6849 1.33339 26.8016 1.45217C26.9184 1.57094 26.984 1.73203 26.984 1.9V7.6H25.7388V3.16667C25.7388 2.9987 25.6732 2.83761 25.5565 2.71883C25.4397 2.60006 25.2814 2.53333 25.1163 2.53333H12.6649C12.4997 2.53333 12.3414 2.60006 12.2246 2.71883C12.1079 2.83761 12.0423 2.9987 12.0423 3.16667V7.6H10.7972V1.9ZM24.4937 7.6H13.2874V3.8H24.4937V7.6ZM2.08118 8.86667H35.6999C35.8651 8.86667 36.0234 8.93339 36.1402 9.05217C36.2569 9.17094 36.3225 9.33203 36.3225 9.5V10.1333H24.4937V10.139C24.4123 10.138 24.3315 10.1533 24.2559 10.1842C24.1804 10.2151 24.1116 10.2609 24.0535 10.3189L19.073 15.3856C18.9583 15.5052 18.8947 15.6662 18.8962 15.8333H18.8906V17.7333H11.4197V17.1C11.4197 16.932 11.3541 16.7709 11.2374 16.6522C11.1206 16.5334 10.9623 16.4667 10.7972 16.4667V13.3C10.7972 13.132 10.7316 12.9709 10.6148 12.8522C10.4981 12.7334 10.3397 12.6667 10.1746 12.6667H6.43917C6.27405 12.6667 6.1157 12.7334 5.99894 12.8522C5.88219 12.9709 5.8166 13.132 5.8166 13.3V16.4667C5.65148 16.4667 5.49313 16.5334 5.37637 16.6522C5.25962 16.7709 5.19403 16.932 5.19403 17.1V17.7333H1.45861V9.5C1.45861 9.33203 1.5242 9.17094 1.64096 9.05217C1.75771 8.93339 1.91606 8.86667 2.08118 8.86667ZM23.8711 12.2955V15.2H21.016L23.8711 12.2955ZM10.1746 19H6.43917V17.7333H10.1746V19ZM9.55202 16.4667H7.06174V13.9333H9.55202V16.4667ZM7.06174 20.2667H9.55202V23.0945L8.30688 23.94L7.06174 23.0958V20.2667ZM2.08118 34.2C1.91606 34.2 1.75771 34.1333 1.64096 34.0145C1.5242 33.8957 1.45861 33.7346 1.45861 33.5667V19H5.19403V19.6333C5.19403 19.8013 5.25962 19.9624 5.37637 20.0812C5.49313 20.1999 5.65148 20.2667 5.8166 20.2667V23.4333C5.81658 23.5376 5.84186 23.6402 5.89019 23.7321C5.93852 23.824 6.0084 23.9024 6.09364 23.9603L7.96135 25.2269C8.06366 25.2964 8.18389 25.3334 8.30688 25.3334C8.42986 25.3334 8.5501 25.2964 8.6524 25.2269L10.5201 23.9603C10.6054 23.9024 10.6752 23.824 10.7236 23.7321C10.7719 23.6402 10.7972 23.5376 10.7972 23.4333V20.2667C10.9623 20.2667 11.1206 20.1999 11.2374 20.0812C11.3541 19.9624 11.4197 19.8013 11.4197 19.6333V19H18.8906V34.2H2.08118ZM36.3225 36.7333H20.1357V16.4667H24.4937C24.6588 16.4667 24.8172 16.3999 24.9339 16.2812C25.0507 16.1624 25.1163 16.0013 25.1163 15.8333V11.4H36.3225V36.7333Z" fill="#74BB20"/>
<path d="M26.3614 13.9333H28.8517V15.2H26.3614V13.9333Z" fill="#74BB20"/>
<path d="M30.0968 13.9333H35.0774V15.2H30.0968V13.9333Z" fill="#74BB20"/>
<path d="M21.3808 17.7333H28.8517V19H21.3808V17.7333Z" fill="#74BB20"/>
<path d="M30.0968 17.7333H35.0774V19H30.0968V17.7333Z" fill="#74BB20"/>
<path d="M21.3808 21.5333H35.0774V22.8H21.3808V21.5333Z" fill="#74BB20"/>
<path d="M21.3808 25.3333H35.0774V26.6H21.3808V25.3333Z" fill="#74BB20"/>
<path d="M21.3808 29.1333H35.0774V30.4H21.3808V29.1333Z" fill="#74BB20"/>
<path d="M21.3808 32.9333H23.8711V34.2H21.3808V32.9333Z" fill="#74BB20"/>
<path d="M25.1163 32.9333H27.6065V34.2H25.1163V32.9333Z" fill="#74BB20"/>
<path d="M28.8517 32.9333H31.342V34.2H28.8517V32.9333Z" fill="#74BB20"/>
<path d="M32.5871 32.9333H35.0774V34.2H32.5871V32.9333Z" fill="#74BB20"/>
</svg>
