<svg width="20" height="36" viewBox="0 0 20 36" fill="none" xmlns="http://www.w3.org/2000/svg">
<path d="M16.8804 0H3.0027C2.23617 0.000864475 1.50129 0.307017 0.959272 0.85129C0.417255 1.39556 0.112372 2.13351 0.111511 2.90323V33.0968C0.112372 33.8665 0.417255 34.6044 0.959272 35.1487C1.50129 35.693 2.23617 35.9991 3.0027 36H16.8804C17.6469 35.9991 18.3818 35.693 18.9238 35.1487C19.4659 34.6044 19.7707 33.8665 19.7716 33.0968V2.90323C19.7707 2.13351 19.4659 1.39556 18.9238 0.85129C18.3818 0.307017 17.6469 0.000864475 16.8804 0ZM13.8622 1.16129L13.5152 2.90323H6.36798L6.02103 1.16129H13.8622ZM18.6151 33.0968C18.6146 33.5586 18.4317 34.0014 18.1065 34.3279C17.7813 34.6545 17.3403 34.8382 16.8804 34.8387H3.0027C2.54279 34.8382 2.10185 34.6545 1.77664 34.3279C1.45143 34.0014 1.2685 33.5586 1.26799 33.0968V2.90323C1.2685 2.44139 1.45143 1.99863 1.77664 1.67206C2.10185 1.3455 2.54279 1.16181 3.0027 1.16129H4.84157L5.32686 3.59775C5.35307 3.72938 5.4239 3.84782 5.52728 3.93292C5.63066 4.01802 5.76021 4.06452 5.89389 4.06452H13.9892C14.1229 4.06452 14.2525 4.01802 14.3558 3.93292C14.4592 3.84782 14.53 3.72938 14.5563 3.59775L15.0415 1.16129H16.8804C17.3403 1.16181 17.7813 1.3455 18.1065 1.67206C18.4317 1.99863 18.6146 2.44139 18.6151 2.90323V33.0968Z" fill="#74BB20"/>
<path d="M6.47213 32.5161H3.0027C2.84934 32.5161 2.70227 32.5773 2.59383 32.6862C2.48538 32.7951 2.42446 32.9428 2.42446 33.0968C2.42446 33.2508 2.48538 33.3985 2.59383 33.5074C2.70227 33.6162 2.84934 33.6774 3.0027 33.6774H6.47213C6.62549 33.6774 6.77257 33.6162 6.88101 33.5074C6.98945 33.3985 7.05037 33.2508 7.05037 33.0968C7.05037 32.9428 6.98945 32.7951 6.88101 32.6862C6.77257 32.5773 6.62549 32.5161 6.47213 32.5161Z" fill="#74BB20"/>
<path d="M8.78508 32.5161H8.20684C8.05349 32.5161 7.90641 32.5773 7.79797 32.6862C7.68953 32.7951 7.62861 32.9428 7.62861 33.0968C7.62861 33.2508 7.68953 33.3985 7.79797 33.5074C7.90641 33.6162 8.05349 33.6774 8.20684 33.6774H8.78508C8.93844 33.6774 9.08552 33.6162 9.19396 33.5074C9.3024 33.3985 9.36332 33.2508 9.36332 33.0968C9.36332 32.9428 9.3024 32.7951 9.19396 32.6862C9.08552 32.5773 8.93844 32.5161 8.78508 32.5161Z" fill="#74BB20"/>
</svg>
