<svg width="36" height="35" viewBox="0 0 36 35" fill="none" xmlns="http://www.w3.org/2000/svg">
<path d="M28.0109 20.8515C27.7324 20.8515 27.5065 21.0811 27.5065 21.3644C27.5065 21.6476 27.7324 21.8772 28.0109 21.8772H29.069C29.3475 21.8772 29.5734 21.6476 29.5734 21.3644C29.5734 21.0811 29.3475 20.8515 29.069 20.8515H28.0109Z" fill="#74BB20"/>
<path d="M28.0109 27.1628H29.069C29.3475 27.1628 29.5734 26.9332 29.5734 26.6499C29.5734 26.3667 29.3475 26.1371 29.069 26.1371H28.0109C27.7324 26.1371 27.5065 26.3667 27.5065 26.6499C27.5065 26.9332 27.7323 27.1628 28.0109 27.1628Z" fill="#74BB20"/>
<path d="M28.0109 32.4484H29.069C29.3475 32.4484 29.5734 32.2189 29.5734 31.9356C29.5734 31.6523 29.3475 31.4227 29.069 31.4227H28.0109C27.7324 31.4227 27.5065 31.6523 27.5065 31.9356C27.5065 32.2189 27.7323 32.4484 28.0109 32.4484Z" fill="#74BB20"/>
<path d="M34.5275 15.3644H21.9139V14.1156C21.9139 13.5875 21.4915 13.1579 20.9721 13.1579H20.8394V6.99874C20.8394 6.32165 20.2976 5.77082 19.6316 5.77082H12.9482C12.6697 5.77082 12.4439 6.00039 12.4439 6.28366C12.4439 6.56693 12.6697 6.7965 12.9482 6.7965H19.6316C19.7414 6.7965 19.8306 6.88724 19.8306 6.99874V13.1579H8.63664V6.99874C8.63664 6.88724 8.72588 6.7965 8.83561 6.7965H10.5858C10.8643 6.7965 11.0902 6.56693 11.0902 6.28366C11.0902 6.00039 10.8643 5.77082 10.5858 5.77082H8.83561C8.16969 5.77082 7.62787 6.32165 7.62787 6.99874V13.1579H7.49516C6.97585 13.1579 6.55332 13.5875 6.55332 14.1156V15.3644H1.77577C1.3199 15.3644 0.949036 15.7415 0.949036 16.205V18.4851C0.949036 18.9486 1.3199 19.3257 1.77577 19.3257H2.22498V34.236C2.22498 34.6573 2.56205 35 2.97639 35H4.71432C5.12866 35 5.46572 34.6573 5.46572 34.236V31.727H23.0017V34.2362C23.0017 34.6574 23.3387 35 23.7529 35H33.3271C33.7413 35 34.0783 34.6574 34.0783 34.2362V22.8247C34.0783 22.5415 33.8525 22.3119 33.5739 22.3119C33.2954 22.3119 33.0696 22.5415 33.0696 22.8247V23.5248H24.0104V19.3257H33.0695V20.4427C33.0695 20.7259 33.2953 20.9555 33.5739 20.9555C33.8524 20.9555 34.0783 20.7259 34.0783 20.4427V19.3257H34.5275C34.9833 19.3257 35.3542 18.9486 35.3542 18.4851V16.205C35.3542 15.7415 34.9833 15.3644 34.5275 15.3644ZM7.56209 14.1836H20.9052V15.3644H7.56209V14.1836ZM4.45688 33.9743H3.23375V19.3257H4.45688V33.9743ZM23.0016 30.7013H5.46566V19.3257H23.0016V30.7013ZM33.0695 33.9743H24.0104V29.7752H33.0695V33.9743ZM33.0695 24.5504V28.7495H24.0104V24.5504H33.0695ZM34.3454 18.3H1.95781V16.3901H34.3454V18.3Z" fill="#74BB20"/>
<path d="M28.54 6.79643C30.3829 6.79643 31.8821 5.27198 31.8821 3.39825C31.8821 1.52452 30.3828 0 28.54 0C26.6971 0 25.1978 1.52445 25.1978 3.39818C25.1978 5.27191 26.6971 6.79643 28.54 6.79643ZM28.54 1.02569C29.8266 1.02569 30.8733 2.08998 30.8733 3.39818C30.8733 4.70639 29.8265 5.77068 28.54 5.77068C27.2533 5.77075 26.2065 4.70646 26.2065 3.39818C26.2065 2.08998 27.2533 1.02569 28.54 1.02569Z" fill="#74BB20"/>
<path d="M28.54 3.77629H29.0116C29.2902 3.77629 29.516 3.54672 29.516 3.26345C29.516 2.99138 29.3076 2.76885 29.0443 2.7517V2.34038C29.0443 2.05711 28.8185 1.82754 28.54 1.82754C28.2614 1.82754 28.0356 2.05711 28.0356 2.34038V3.26352C28.0356 3.54672 28.2614 3.77629 28.54 3.77629Z" fill="#74BB20"/>
</svg>
