<svg width="36" height="35" viewBox="0 0 36 35" fill="none" xmlns="http://www.w3.org/2000/svg">
<path d="M1.50304 17.4922H1.52313C1.83253 17.4925 2.08635 17.2432 2.09689 16.9287C2.40729 7.91383 9.84719 0.861638 18.7144 1.17714C22.1251 1.29855 25.4092 2.52097 28.0906 4.66736H25.037C24.7202 4.66736 24.4633 4.92855 24.4633 5.25068C24.4633 5.57282 24.7202 5.834 25.037 5.834H29.6352C29.6801 5.83029 29.7243 5.82132 29.7671 5.80717C29.7965 5.80287 29.8254 5.79645 29.8538 5.78792C29.8698 5.78092 29.8819 5.76634 29.8974 5.75759C29.9489 5.732 29.9961 5.69831 30.0374 5.65784L30.0431 5.65376C30.0577 5.63349 30.0709 5.61227 30.0827 5.59018C30.1128 5.55299 30.1381 5.51201 30.1579 5.46826C30.1736 5.42174 30.1833 5.37333 30.1866 5.32418C30.1931 5.30012 30.198 5.27555 30.2009 5.25068V0.584124C30.2009 0.261985 29.944 0.000804072 29.6271 0.000804072C29.3103 0.000804072 29.0534 0.261985 29.0534 0.584124V3.96271C21.702 -2.16083 10.8596 -1.06623 4.83639 6.4077C2.44574 9.37417 1.08004 13.057 0.949364 16.8897C0.93875 17.2114 1.18654 17.4812 1.50304 17.4922Z" fill="#74BB20"/>
<path d="M6.14822 28.3554C5.93765 28.1138 5.57432 28.0915 5.33664 28.3055C5.09895 28.5196 5.07701 28.889 5.28758 29.1306C5.68254 29.5813 6.09981 30.0112 6.53781 30.4186C6.77599 30.6312 7.13846 30.6071 7.34753 30.365C7.55064 30.1297 7.53486 29.7735 7.31181 29.5576C6.90401 29.1774 6.51564 28.7761 6.14822 28.3554Z" fill="#74BB20"/>
<path d="M12.9955 32.9741C12.4709 32.7936 11.956 32.5854 11.4527 32.3506C11.1687 32.2076 10.8245 32.3257 10.6838 32.6144C10.5432 32.903 10.6594 33.253 10.9433 33.396C10.953 33.4009 10.9629 33.4056 10.973 33.4099C11.5126 33.6624 12.065 33.8859 12.6277 34.0795C12.9279 34.1828 13.2537 34.019 13.3552 33.7138C13.4569 33.4086 13.2958 33.0774 12.9955 32.9741Z" fill="#74BB20"/>
<path d="M9.98153 31.5666V31.566C9.50466 31.2788 9.04242 30.9673 8.59646 30.6327C8.34767 30.4331 7.98691 30.4764 7.79062 30.7294C7.59432 30.9823 7.63692 31.3491 7.88572 31.5486C7.89504 31.5561 7.90451 31.5633 7.91426 31.5702C8.3912 31.9291 8.88586 32.263 9.39629 32.5705C9.66897 32.7348 10.021 32.6433 10.1826 32.3661C10.3443 32.0888 10.2542 31.7309 9.98153 31.5666Z" fill="#74BB20"/>
<path d="M5.10914 27.0389C4.78568 26.5817 4.48546 26.1079 4.20948 25.6196C4.05105 25.3402 3.69976 25.2442 3.42486 25.4053C3.14996 25.5663 3.05557 25.9235 3.214 26.203C3.50963 26.7251 3.83137 27.2315 4.17792 27.7202C4.3682 27.9778 4.72787 28.0298 4.98126 27.8363C5.22741 27.6484 5.28385 27.2965 5.10914 27.0389Z" fill="#74BB20"/>
<path d="M3.50877 24.3549C3.50877 24.2736 3.49199 24.1931 3.45964 24.1188L3.4585 24.1147C3.23394 23.6005 3.03571 23.0748 2.86465 22.5398C2.78146 22.2289 2.4661 22.0455 2.16036 22.1301C1.85462 22.2147 1.67417 22.5353 1.75744 22.8462C1.76231 22.8642 1.76798 22.8821 1.77451 22.8997C1.95761 23.4743 2.16983 24.039 2.41023 24.5913C2.50225 24.8025 2.70809 24.9385 2.93523 24.9384C3.25209 24.9382 3.50884 24.677 3.50877 24.3549Z" fill="#74BB20"/>
<path d="M1.9939 21.5989L1.99418 21.5988C2.3038 21.5317 2.50146 21.2224 2.43598 20.9076C2.32166 20.3566 2.23509 19.7999 2.17664 19.2399C2.14322 18.9193 1.8605 18.687 1.54522 18.721C1.22993 18.755 1.00143 19.0424 1.03485 19.3629C1.09768 19.9628 1.1907 20.559 1.3137 21.1491C1.3794 21.4643 1.68392 21.6656 1.9939 21.5989Z" fill="#74BB20"/>
<path d="M34.4475 21.0034C34.4472 21.0033 34.447 21.0033 34.4468 21.0032C34.1393 20.9258 33.8282 21.1164 33.752 21.4291C33.619 21.9759 33.4584 22.5154 33.2706 23.0454C33.1632 23.3486 33.3178 23.6829 33.616 23.7921C33.9142 23.9013 34.243 23.7441 34.3504 23.4409C34.5517 22.8733 34.7241 22.2954 34.8668 21.7096C34.9428 21.3969 34.7551 21.0807 34.4475 21.0034Z" fill="#74BB20"/>
<path d="M16.2304 33.7167C15.6804 33.6501 15.1343 33.5548 14.594 33.4309C14.2849 33.3599 13.9776 33.557 13.9078 33.8713C13.8379 34.1855 14.0319 34.4979 14.341 34.5689C14.92 34.7016 15.5055 34.8039 16.095 34.8752C16.1178 34.878 16.1408 34.8793 16.1638 34.8793C16.4807 34.8786 16.737 34.6168 16.7364 34.2947C16.7358 33.9997 16.5186 33.7516 16.2304 33.7167Z" fill="#74BB20"/>
<path d="M33.3894 24.3305C33.1041 24.1905 32.7613 24.3119 32.6233 24.6017C32.3821 25.1088 32.1152 25.6028 31.8235 26.0816C31.6613 26.3584 31.7505 26.7164 32.0227 26.8813C32.2883 27.0422 32.6316 26.9602 32.7989 26.6959C33.1112 26.1826 33.3971 25.6532 33.6555 25.1098C33.7937 24.8199 33.6745 24.471 33.3894 24.3305Z" fill="#74BB20"/>
<path d="M31.6943 27.3643C31.4462 27.1638 31.0853 27.2056 30.888 27.4578C30.8846 27.4622 30.8812 27.4666 30.8779 27.4711V27.4699C30.5394 27.9164 30.1784 28.3447 29.7964 28.7532C29.5779 28.9868 29.587 29.3562 29.8168 29.5783C30.0465 29.8004 30.4099 29.7912 30.6283 29.5576C31.0369 29.1199 31.4234 28.6614 31.7862 28.1839C31.9834 27.9318 31.9423 27.5648 31.6943 27.3643Z" fill="#74BB20"/>
<path d="M34.8007 17.5278C34.489 17.5116 34.2234 17.7555 34.2075 18.0723C34.2073 18.0783 34.207 18.0842 34.2069 18.0901C34.1875 18.653 34.1393 19.2146 34.0629 19.7724C34.0196 20.0911 34.2384 20.3852 34.5517 20.4298C34.5783 20.4338 34.6052 20.4357 34.6321 20.4357C34.918 20.4352 35.1601 20.2208 35.1995 19.9328C35.2812 19.3353 35.3327 18.7339 35.3539 18.131C35.3648 17.8092 35.1173 17.5392 34.8007 17.5278Z" fill="#74BB20"/>
<path d="M28.5944 29.9135V29.9152C28.1721 30.2817 27.7316 30.6259 27.2747 30.9465C27.0134 31.1301 26.9481 31.4943 27.1287 31.76C27.3093 32.0256 27.6675 32.092 27.9288 31.9084C28.4174 31.5634 28.8885 31.1935 29.3403 30.8001C29.5811 30.5907 29.6093 30.2225 29.4034 29.9776C29.1975 29.7328 28.8352 29.704 28.5944 29.9135Z" fill="#74BB20"/>
<path d="M22.8057 33.138C22.2755 33.3005 21.7373 33.4348 21.1934 33.5405C20.8822 33.6014 20.6785 33.9072 20.7383 34.2235C20.7902 34.4978 21.026 34.6962 21.3007 34.6967C21.3371 34.6968 21.3734 34.6935 21.4091 34.6868C21.9922 34.5734 22.5691 34.4292 23.1373 34.2545C23.4383 34.1537 23.6018 33.8239 23.5027 33.5179C23.407 33.2228 23.1004 33.0557 22.8057 33.138Z" fill="#74BB20"/>
<path d="M19.5777 33.77C19.5672 33.7706 19.5567 33.7715 19.5462 33.7727L19.5491 33.775C19.0901 33.8147 18.6202 33.8334 18.152 33.8334H17.8898C17.5768 33.8379 17.3211 34.0884 17.3051 34.4062C17.2994 34.7283 17.5515 34.9942 17.8683 35H18.152C18.6534 35 19.156 34.9773 19.6437 34.9347C19.9601 34.9161 20.2018 34.6404 20.1835 34.3188C20.1652 33.9971 19.894 33.7514 19.5777 33.77Z" fill="#74BB20"/>
<path d="M25.8627 31.832H25.8633C25.3775 32.1024 24.8785 32.3474 24.368 32.5658C24.0744 32.6869 23.9329 33.0271 24.052 33.3256C24.171 33.6241 24.5057 33.768 24.7993 33.6469C24.8036 33.6452 24.8078 33.6433 24.8121 33.6414C25.359 33.4075 25.8937 33.145 26.414 32.8551C26.6919 32.7003 26.7938 32.3458 26.6415 32.0633C26.4894 31.7807 26.1406 31.6772 25.8627 31.832Z" fill="#74BB20"/>
<path d="M18.1519 5.25068C11.4974 5.25068 6.10289 10.7351 6.10289 17.5004C6.10289 24.2657 11.4974 29.7501 18.1519 29.7501C24.8064 29.7501 30.2009 24.2657 30.2009 17.5004C30.1934 10.7383 24.8032 5.25841 18.1519 5.25068ZM27.3321 18.0837H29.0241C28.726 23.7359 24.2852 28.2507 18.7257 28.5537V26.8335C18.7257 26.5114 18.4688 26.2502 18.1519 26.2502C17.835 26.2502 17.5781 26.5114 17.5781 26.8335V28.5537C12.0186 28.2507 7.57775 23.7359 7.27968 18.0837H8.9717C9.28856 18.0837 9.54547 17.8225 9.54547 17.5004C9.54547 17.1783 9.28856 16.9171 8.9717 16.9171H7.27968C7.57775 11.2649 12.0186 6.75011 17.5781 6.44707V8.16728C17.5781 8.48942 17.835 8.7506 18.1519 8.7506C18.4688 8.7506 18.7257 8.48942 18.7257 8.16728V6.44707C24.2852 6.75011 28.726 11.2649 29.0241 16.9171H27.3321C27.0152 16.9171 26.7583 17.1783 26.7583 17.5004C26.7583 17.8225 27.0152 18.0837 27.3321 18.0837Z" fill="#74BB20"/>
<path d="M18.7257 15.8578V10.5006C18.7257 10.1784 18.4688 9.91724 18.1519 9.91724C17.835 9.91724 17.5781 10.1784 17.5781 10.5006V15.8578C17.0922 16.0342 16.7097 16.4231 16.5362 16.9171H13.5618C13.2449 16.9171 12.988 17.1783 12.988 17.5004C12.988 17.8225 13.2449 18.0837 13.5618 18.0837H16.5362C16.8506 18.9934 17.8309 19.4717 18.7257 19.1521C19.6204 18.8324 20.0909 17.8358 19.7765 16.9261C19.6038 16.4264 19.2172 16.0334 18.7257 15.8578ZM18.1519 18.0837C17.835 18.0837 17.5781 17.8225 17.5781 17.5004C17.5781 17.1783 17.835 16.9171 18.1519 16.9171C18.4688 16.9171 18.7257 17.1783 18.7257 17.5004C18.7257 17.8225 18.4688 18.0837 18.1519 18.0837Z" fill="#74BB20"/>
</svg>
